<svg xmlns="http://www.w3.org/2000/svg" xmlns:xlink="http://www.w3.org/1999/xlink" width="500" zoomAndPan="magnify" viewBox="0 0 375 374.999991" height="500" preserveAspectRatio="xMidYMid meet" version="1.0"><defs><clipPath id="93fb30b762"><path d="M 0 234.667969 L 357 234.667969 L 357 360.667969 L 0 360.667969 Z M 0 234.667969 " clip-rule="nonzero"/></clipPath><clipPath id="ded83d4529"><path d="M 137.410156 190 L 340 190 L 340 340.019531 L 137.410156 340.019531 Z M 137.410156 190 " clip-rule="nonzero"/></clipPath></defs><g clip-path="url(#93fb30b762)"><path fill="#876357" d="M 355.707031 302.371094 C 355.386719 302.507812 355.332031 302.714844 355.300781 303.042969 C 355.066406 305.695312 354.300781 308.203125 353.082031 310.550781 C 352.054688 312.53125 350.847656 314.382812 349.230469 315.976562 C 347.253906 317.914062 345.28125 319.839844 343.140625 321.605469 C 342.691406 321.972656 342.015625 322.433594 343.035156 323 C 343.363281 323.183594 343.40625 323.648438 343.179688 323.855469 C 342.863281 324.144531 342.328125 324.078125 342.101562 323.734375 C 341.453125 322.765625 340.9375 323.285156 340.402344 323.8125 C 340.125 324.085938 339.875 324.320312 339.46875 324.480469 C 338.484375 324.851562 338.261719 325.695312 338.761719 326.730469 C 338.054688 326.992188 337.5 326.808594 337.121094 326.214844 C 335.621094 327.316406 334.128906 328.359375 332.433594 328.957031 C 329.828125 329.867188 327.6875 331.617188 325.152344 332.675781 C 322.742188 333.683594 320.386719 334.847656 318.003906 335.925781 C 313.898438 337.78125 309.660156 339.285156 305.394531 340.691406 C 301.648438 341.925781 297.867188 343.085938 294.019531 344.015625 C 291.859375 344.535156 289.617188 344.828125 287.554688 345.5625 C 285.050781 346.449219 282.433594 346.6875 279.898438 347.328125 C 277.800781 347.863281 275.558594 348.09375 273.460938 348.636719 C 271.550781 349.136719 269.582031 349.171875 267.683594 349.808594 C 265.96875 350.378906 264.078125 350.445312 262.273438 350.738281 C 260.289062 351.066406 258.292969 351.378906 256.308594 351.679688 C 254.410156 351.972656 252.527344 352.402344 250.585938 352.558594 C 248.886719 352.695312 247.246094 353.488281 245.527344 353.675781 C 242.578125 353.996094 239.695312 354.695312 236.734375 354.925781 C 234.695312 355.082031 232.667969 355.433594 230.648438 355.761719 C 228.65625 356.089844 226.652344 356.238281 224.652344 356.433594 C 221.742188 356.710938 218.839844 357.054688 215.917969 357.269531 C 214.285156 357.390625 212.652344 357.445312 211.011719 357.5625 C 210.390625 357.605469 209.8125 357.8125 209.105469 357.796875 C 209.726562 358.753906 209.125 359.683594 209.210938 360.597656 C 209.070312 360.597656 208.917969 360.597656 208.777344 360.597656 C 208.492188 360.011719 208.054688 359.453125 207.964844 358.839844 C 207.804688 357.816406 207.113281 357.695312 206.394531 357.769531 C 203.167969 358.089844 199.9375 358.097656 196.710938 358.226562 C 194.035156 358.332031 191.367188 358.195312 188.695312 358.210938 C 188.019531 358.21875 187.46875 358.246094 187.511719 359.167969 C 187.527344 359.484375 187.417969 359.90625 186.925781 359.925781 C 186.398438 359.949219 186.300781 359.484375 186.300781 359.191406 C 186.292969 358.289062 185.800781 358.375 185.113281 358.296875 C 182.824219 358.039062 180.511719 358.0625 178.234375 358.054688 C 175.644531 358.046875 173.027344 358.066406 170.429688 358.332031 C 169.050781 358.476562 167.648438 358.195312 166.246094 358.183594 C 163.742188 358.160156 161.230469 358.234375 158.726562 358.320312 C 158.078125 358.339844 157.363281 358.234375 156.6875 358.160156 C 154.496094 357.910156 152.296875 358.027344 150.105469 357.933594 C 145.613281 357.734375 141.128906 357.375 136.65625 356.917969 C 133.746094 356.617188 130.8125 356.46875 127.902344 356.175781 C 125.789062 355.960938 123.683594 355.632812 121.578125 355.347656 C 119.359375 355.046875 117.140625 354.796875 114.933594 354.425781 C 111.703125 353.875 108.433594 353.546875 105.25 352.671875 C 103.609375 352.222656 101.871094 352.128906 100.171875 351.84375 C 97.546875 351.394531 94.898438 351 92.257812 350.628906 C 89.238281 350.203125 86.25 349.550781 83.257812 348.949219 C 81.125 348.523438 79.015625 348.015625 76.886719 347.558594 C 73.832031 346.90625 70.773438 346.316406 67.730469 345.621094 C 65.527344 345.113281 63.359375 344.449219 61.160156 343.929688 C 59.417969 343.511719 57.671875 343.148438 55.949219 342.613281 C 55.136719 342.363281 54.316406 342.078125 53.503906 341.828125 C 50.527344 340.90625 47.617188 339.761719 44.675781 338.746094 C 41.765625 337.746094 38.976562 336.46875 36.121094 335.355469 C 35.464844 335.097656 35.023438 335.195312 34.542969 335.609375 C 34.164062 335.941406 33.824219 336.359375 33.152344 336.175781 C 33.253906 335.730469 33.480469 335.417969 33.835938 335.152344 C 34.371094 334.753906 34.214844 334.488281 33.660156 334.269531 C 33.132812 334.058594 32.582031 333.859375 32.117188 333.546875 C 31.324219 333.003906 30.625 333.445312 29.890625 333.625 C 29.597656 333.695312 29.257812 334.046875 29.015625 333.683594 C 28.792969 333.351562 29.15625 333.097656 29.355469 332.839844 C 29.441406 332.722656 29.511719 332.59375 29.632812 332.402344 C 27.695312 331.632812 26.136719 330.179688 24.226562 329.507812 C 20.820312 328.308594 18.03125 326.144531 15.214844 324.058594 C 13 322.414062 10.894531 320.597656 8.882812 318.683594 C 6.878906 316.785156 4.859375 314.902344 3.4375 312.523438 C 1.796875 309.78125 0.378906 306.957031 0.183594 303.628906 C 0.0703125 302.507812 0.113281 301.355469 0.078125 300.226562 C 0.0195312 298.570312 0.507812 296.898438 0.734375 295.234375 C 0.878906 294.226562 1.234375 293.289062 1.640625 292.375 C 1.933594 291.71875 2.082031 291.160156 1.078125 291.011719 C 0.792969 290.96875 0.40625 290.738281 0.492188 290.339844 C 0.5625 290.011719 0.941406 289.890625 1.207031 289.996094 C 2.660156 290.582031 3.027344 289.28125 3.425781 288.53125 C 5.324219 284.988281 7.714844 281.792969 10.480469 278.921875 C 12.050781 277.292969 13.59375 275.613281 15.355469 274.140625 C 16.570312 273.125 17.746094 271.984375 18.886719 270.832031 C 19.824219 269.894531 20.941406 269.101562 22.035156 268.347656 C 23.933594 267.039062 25.738281 265.601562 27.730469 264.417969 C 30.140625 262.972656 32.476562 261.378906 34.992188 260.144531 C 37.003906 259.15625 38.789062 257.679688 41.09375 257.328125 C 41 256.855469 40.628906 256.8125 40.410156 256.613281 C 40.230469 256.449219 39.96875 256.285156 40.1875 255.976562 C 40.351562 255.75 40.601562 255.613281 40.851562 255.761719 C 43.265625 257.234375 45.054688 255.296875 47.082031 254.65625 C 47.253906 254.605469 47.289062 254.527344 47.300781 254.355469 C 47.359375 253.425781 47.394531 253.382812 48.214844 253.785156 C 48.6875 254.011719 49.109375 254.035156 49.566406 253.828125 C 53.261719 252.140625 57.179688 251.097656 61.039062 249.890625 C 64.386719 248.839844 67.796875 248.003906 71.1875 247.101562 C 73.347656 246.53125 75.558594 245.972656 77.800781 245.636719 C 80.320312 245.257812 82.824219 244.738281 85.320312 244.273438 C 89.082031 243.566406 92.914062 243.335938 96.640625 242.539062 C 98.324219 242.171875 100.015625 241.78125 101.707031 241.507812 C 104.746094 241.007812 107.777344 240.464844 110.824219 240.007812 C 113.136719 239.664062 115.464844 239.316406 117.773438 238.914062 C 120.074219 238.523438 122.398438 238.257812 124.71875 237.992188 C 128.683594 237.535156 132.667969 237.199219 136.640625 236.828125 C 139.746094 236.542969 142.855469 236.351562 145.960938 236.058594 C 147.296875 235.933594 148.644531 235.90625 149.980469 235.792969 C 152.425781 235.59375 154.867188 235.183594 157.308594 235.199219 C 159.40625 235.214844 161.445312 234.761719 163.550781 234.800781 C 166.234375 234.84375 168.929688 234.71875 171.621094 234.707031 C 176.929688 234.671875 182.230469 234.65625 187.539062 234.726562 C 190.910156 234.769531 194.292969 234.835938 197.644531 235.179688 C 200.871094 235.507812 204.109375 235.679688 207.34375 235.941406 C 210.011719 236.15625 212.703125 236.265625 215.371094 236.5 C 218.765625 236.800781 222.164062 237.164062 225.558594 237.464844 C 229.019531 237.773438 232.4375 238.371094 235.898438 238.65625 C 236.683594 238.722656 237.449219 238.945312 238.226562 239.078125 C 238.933594 239.195312 239.4375 238.929688 240.050781 238.5 C 240.628906 238.101562 240.386719 239.722656 241.378906 239.527344 C 241.871094 239.429688 242.449219 239.457031 242.992188 239.65625 C 243.535156 239.863281 243.535156 239.207031 243.820312 238.972656 C 244.113281 238.722656 244.347656 238.101562 244.699219 238.292969 C 245.117188 238.527344 244.933594 239.109375 244.769531 239.550781 C 244.707031 239.714844 244.664062 239.886719 244.632812 239.988281 C 248.136719 240.894531 251.710938 241.085938 255.207031 241.859375 C 259.027344 242.703125 262.9375 243.136719 266.804688 243.746094 C 271.550781 244.488281 276.324219 245.175781 280.976562 246.46875 C 282.554688 246.910156 284.214844 247.046875 285.808594 247.445312 C 286.742188 247.683594 287.640625 248.054688 288.574219 248.324219 C 290.023438 248.738281 291.5 249.066406 292.933594 249.484375 C 294.648438 249.984375 296.394531 250.441406 298.085938 251.046875 C 300.664062 251.96875 303.273438 252.789062 305.824219 253.785156 C 309.875 255.371094 314.015625 256.769531 317.859375 258.828125 C 320.101562 260.027344 322.425781 261.09375 324.53125 262.542969 C 324.859375 262.765625 325.089844 262.75 325.417969 262.566406 C 326.039062 262.214844 326.738281 262.074219 327.457031 261.964844 C 327.445312 262.101562 327.464844 262.1875 327.429688 262.238281 C 327.109375 262.679688 326.507812 263.117188 326.507812 263.550781 C 326.507812 264.085938 327.328125 264.144531 327.773438 264.445312 C 331.191406 266.753906 334.488281 269.210938 337.597656 271.917969 C 339.316406 273.410156 340.921875 275.039062 342.558594 276.632812 C 343.671875 277.71875 344.785156 278.8125 345.847656 279.949219 C 346.304688 280.441406 346.722656 280.257812 347.222656 280.136719 C 347.546875 280.058594 348.074219 279.914062 348.222656 280.242188 C 348.402344 280.644531 348.03125 281.007812 347.628906 281.136719 C 347.046875 281.328125 347.074219 281.550781 347.4375 281.972656 C 349.386719 284.257812 351.078125 286.753906 352.433594 289.417969 C 353.566406 291.644531 354.617188 293.96875 354.671875 296.589844 C 354.710938 298.097656 355.507812 299.507812 355.289062 301.042969 C 355.851562 301.191406 356.664062 300.800781 356.835938 301.476562 C 357.015625 302.214844 356.164062 302.171875 355.707031 302.371094 Z M 355.707031 302.371094 " fill-opacity="1" fill-rule="nonzero"/></g><path fill="#a28b7d" d="M 1.328125 303.507812 C 1.328125 301.570312 1.183594 299.621094 1.371094 297.699219 C 1.535156 295.933594 2.210938 294.246094 2.863281 292.589844 C 4.074219 289.496094 5.929688 286.773438 7.90625 284.121094 C 10.988281 279.984375 14.570312 276.335938 18.539062 273.054688 C 21.921875 270.253906 25.296875 267.417969 29.085938 265.160156 C 31.625 263.644531 34.179688 262.164062 36.785156 260.765625 C 39.503906 259.292969 42.371094 258.171875 45.160156 256.886719 C 46.089844 256.457031 47.132812 256.175781 48.074219 255.777344 C 50.136719 254.890625 52.261719 254.191406 54.375 253.460938 C 57.371094 252.417969 60.417969 251.496094 63.488281 250.65625 C 65.792969 250.019531 68.101562 249.398438 70.414062 248.761719 C 73.375 247.953125 76.386719 247.359375 79.390625 246.730469 C 81.96875 246.195312 84.542969 245.667969 87.128906 245.175781 C 88.605469 244.886719 90.109375 244.652344 91.585938 244.289062 C 93.085938 243.917969 94.667969 243.917969 96.210938 243.6875 C 98.066406 243.410156 99.90625 242.960938 101.769531 242.773438 C 104.011719 242.542969 106.171875 241.9375 108.414062 241.707031 C 109.988281 241.542969 111.53125 241.121094 113.128906 240.980469 C 115.710938 240.742188 118.246094 240.171875 120.835938 239.921875 C 123.132812 239.699219 125.425781 239.300781 127.730469 239.050781 C 129.585938 238.851562 131.441406 238.613281 133.296875 238.441406 C 136.683594 238.128906 140.082031 237.734375 143.476562 237.605469 C 146.019531 237.507812 148.539062 237.179688 151.085938 237.085938 C 154.730469 236.949219 158.355469 236.390625 162.003906 236.320312 C 164.457031 236.277344 166.898438 236.027344 169.367188 236.058594 C 173.992188 236.113281 178.621094 236.136719 183.246094 235.992188 C 185.421875 235.921875 187.570312 236.070312 189.730469 236.15625 C 191.328125 236.222656 192.929688 236.40625 194.527344 236.449219 C 198.507812 236.550781 202.476562 236.964844 206.449219 237.179688 C 210.105469 237.378906 213.75 237.707031 217.398438 238.015625 C 222.042969 238.414062 226.679688 238.851562 231.304688 239.507812 C 233.582031 239.828125 235.886719 239.921875 238.140625 240.394531 C 238.476562 240.464844 238.769531 240.394531 238.660156 240.953125 C 238.5625 241.445312 239.039062 241.671875 239.347656 241.386719 C 240.472656 240.351562 241.699219 240.929688 242.871094 241.101562 C 246.582031 241.636719 250.292969 242.214844 253.996094 242.832031 C 256.351562 243.222656 258.667969 243.867188 261.058594 243.980469 C 262.953125 244.074219 264.785156 244.503906 266.613281 244.851562 C 268.125 245.136719 269.664062 245.332031 271.179688 245.722656 C 273.554688 246.347656 275.980469 246.796875 278.40625 247.183594 C 279.664062 247.382812 280.839844 247.839844 282.089844 248.074219 C 285.726562 248.761719 289.261719 249.902344 292.84375 250.824219 C 294.742188 251.320312 296.625 252.046875 298.507812 252.667969 C 299.851562 253.113281 301.171875 253.621094 302.519531 254.035156 C 305.574219 254.984375 308.46875 256.320312 311.429688 257.484375 C 314.191406 258.570312 316.863281 259.859375 319.480469 261.230469 C 321.972656 262.535156 324.347656 264.066406 326.75 265.53125 C 329.828125 267.394531 332.644531 269.601562 335.40625 271.855469 C 337.664062 273.691406 340.046875 275.441406 341.851562 277.8125 C 342.472656 278.628906 343.304688 279.3125 344.035156 280.070312 C 345.804688 281.921875 347.273438 283.992188 348.808594 286.023438 C 351.378906 289.425781 353.023438 293.277344 353.902344 297.414062 C 354.175781 298.699219 354.089844 300.140625 353.929688 301.472656 C 353.78125 302.773438 353.925781 304.085938 353.582031 305.371094 C 353.230469 306.707031 352.777344 307.996094 352.183594 309.238281 C 351.476562 310.71875 350.757812 312.203125 349.691406 313.4375 C 347.558594 315.917969 345.132812 318.113281 342.648438 320.226562 C 340.964844 321.65625 339.367188 323.207031 337.476562 324.355469 C 335.015625 325.859375 332.761719 327.652344 330.085938 328.859375 C 327.859375 329.867188 325.617188 330.902344 323.441406 332.039062 C 321.886719 332.851562 320.160156 333.339844 318.566406 334.097656 C 315.914062 335.359375 313.171875 336.390625 310.433594 337.441406 C 307.085938 338.71875 303.640625 339.726562 300.234375 340.855469 C 296.9375 341.949219 293.542969 342.707031 290.210938 343.65625 C 287.605469 344.398438 284.921875 344.863281 282.273438 345.441406 C 279.234375 346.105469 276.203125 346.808594 273.121094 347.242188 C 271.949219 347.40625 270.800781 347.773438 269.664062 348.101562 C 268.132812 348.550781 266.535156 348.628906 264.984375 349.023438 C 263.371094 349.4375 261.703125 349.59375 260.054688 349.84375 C 256.730469 350.359375 253.390625 350.824219 250.070312 351.378906 C 246.972656 351.902344 243.90625 352.667969 240.792969 353.039062 C 237.710938 353.402344 234.644531 353.917969 231.570312 354.308594 C 228.066406 354.753906 224.519531 354.789062 221.042969 355.496094 C 220.121094 355.683594 219.152344 355.667969 218.226562 355.703125 C 214.707031 355.847656 211.21875 356.453125 207.683594 356.417969 C 205.539062 356.394531 203.402344 356.554688 201.277344 356.839844 C 200.421875 356.953125 199.566406 356.789062 198.695312 356.8125 C 194.753906 356.902344 190.808594 357.046875 186.871094 357.019531 C 182.515625 356.988281 178.164062 356.8125 173.804688 356.859375 C 171.828125 356.882812 169.84375 357.039062 167.867188 357.046875 C 166.140625 357.054688 164.40625 356.910156 162.679688 356.875 C 160.574219 356.839844 158.476562 356.839844 156.371094 356.839844 C 153.046875 356.839844 149.742188 356.273438 146.425781 356.296875 C 144.5 356.3125 142.601562 356.082031 140.703125 355.925781 C 137.960938 355.695312 135.214844 355.566406 132.480469 355.175781 C 130.625 354.910156 128.722656 354.925781 126.859375 354.636719 C 125.066406 354.367188 123.261719 354.28125 121.472656 353.972656 C 120.566406 353.824219 119.644531 353.71875 118.722656 353.574219 C 115.585938 353.089844 112.394531 352.84375 109.296875 352.171875 C 106.851562 351.636719 104.394531 351.257812 101.933594 350.851562 C 98.785156 350.328125 95.640625 349.84375 92.484375 349.402344 C 90.417969 349.109375 88.390625 348.578125 86.34375 348.195312 C 82.367188 347.449219 78.398438 346.679688 74.453125 345.808594 C 70.929688 345.027344 67.382812 344.265625 63.902344 343.25 C 62.109375 342.726562 60.304688 342.234375 58.464844 341.882812 C 57.15625 341.632812 55.886719 341.121094 54.625 340.707031 C 50.691406 339.414062 46.71875 338.253906 42.878906 336.695312 C 41.066406 335.960938 39.148438 335.382812 37.441406 334.523438 C 35.691406 333.644531 33.722656 333.140625 32.160156 331.816406 C 31.691406 331.425781 30.785156 331.453125 30.089844 331.160156 C 28.722656 330.574219 27.367188 329.980469 26.074219 329.222656 C 24.324219 328.195312 22.34375 327.59375 20.695312 326.394531 C 16.90625 323.636719 13.03125 320.992188 9.746094 317.597656 C 8.476562 316.28125 7.09375 315.070312 5.792969 313.769531 C 5.464844 313.445312 5.238281 313.011719 5.007812 312.597656 C 3.710938 310.289062 2.304688 308.03125 1.640625 305.4375 C 1.476562 304.84375 1.542969 304.164062 1.5 303.507812 C 1.441406 303.507812 1.382812 303.507812 1.328125 303.507812 Z M 180.253906 247.652344 C 180.042969 247.574219 179.835938 247.503906 179.621094 247.425781 C 178.535156 247.46875 177.449219 247.195312 176.351562 247.402344 C 175.875 247.496094 175.359375 247.445312 174.859375 247.265625 C 174.410156 247.109375 173.933594 247.167969 173.503906 247.4375 C 173.417969 246.804688 173.339844 246.167969 173.242188 245.53125 C 173.207031 245.308594 173.097656 245.09375 172.839844 245.109375 C 172.585938 245.125 172.5 245.375 172.464844 245.574219 C 172.328125 246.238281 172.640625 246.832031 172.8125 247.4375 C 171.230469 247.730469 169.59375 247.308594 168.023438 247.847656 C 167.445312 248.046875 166.78125 248.339844 166.242188 248.21875 C 163.992188 247.703125 161.773438 248.355469 159.5625 248.433594 C 156.207031 248.546875 152.847656 249.003906 149.484375 249.332031 C 148.257812 249.453125 147.066406 249.160156 145.847656 249.347656 C 144.078125 249.617188 142.285156 249.71875 140.507812 249.925781 C 140.238281 249.953125 140.03125 249.988281 139.808594 249.804688 C 139.488281 249.53125 139.152344 249.660156 138.78125 249.761719 C 137.632812 250.082031 136.492188 250.425781 135.25 250.296875 C 134.574219 250.226562 133.875 250.375 133.195312 250.40625 C 132.269531 250.441406 131.425781 250.847656 130.46875 250.78125 C 129.792969 250.738281 129.042969 250.917969 128.335938 251.03125 C 127.894531 251.105469 127.671875 251.710938 127.03125 251.582031 C 126.003906 251.382812 125.003906 251.65625 123.96875 251.863281 C 122.589844 252.132812 121.265625 252.597656 119.84375 252.71875 C 118.195312 252.855469 116.425781 252.925781 114.957031 253.582031 C 113.078125 254.417969 111.074219 254.457031 109.175781 255.078125 C 107.3125 255.691406 105.359375 256.0625 103.417969 256.371094 C 102.625 256.5 102.253906 257.3125 101.484375 257.269531 C 100.585938 257.222656 99.765625 257.464844 98.9375 257.742188 C 97.003906 258.386719 94.992188 258.699219 93.058594 259.4375 C 91.207031 260.144531 89.339844 260.914062 87.382812 261.371094 C 85.523438 261.800781 83.835938 262.765625 82.011719 263.351562 C 80.796875 263.738281 79.320312 264.042969 78.398438 265.1875 C 78.207031 265.429688 77.957031 265.429688 77.707031 265.410156 C 76.789062 265.34375 76.039062 265.824219 75.21875 266.117188 C 74.113281 266.507812 73.21875 267.273438 72.15625 267.761719 C 71.230469 268.1875 70.117188 268.359375 69.378906 269.003906 C 67.710938 270.453125 65.535156 270.902344 63.742188 272.210938 C 62.222656 273.324219 60.640625 274.578125 58.804688 275.320312 C 58.121094 275.597656 57.515625 276.105469 56.90625 276.546875 C 55.539062 277.542969 54.140625 278.507812 52.839844 279.585938 C 51.589844 280.613281 50.144531 281.457031 49.171875 282.773438 C 47.667969 284.824219 45.960938 286.757812 45.375 289.394531 C 44.890625 291.597656 43.878906 293.613281 44.347656 296.054688 C 44.707031 297.898438 45.40625 299.476562 46.453125 300.898438 C 48.03125 303.042969 49.949219 304.871094 52.046875 306.542969 C 52.996094 307.300781 53.78125 308.375 54.800781 309.03125 C 57.113281 310.53125 59.285156 312.261719 61.773438 313.476562 C 61.550781 313.582031 61.296875 313.652344 61.125 313.816406 C 60.832031 314.089844 60.261719 314.339844 60.566406 314.824219 C 60.796875 315.183594 61.28125 314.988281 61.652344 314.832031 C 62.109375 314.640625 62.515625 314.3125 63.042969 314.3125 C 63.351562 315.027344 64.15625 314.855469 64.691406 315.234375 C 65.847656 316.054688 66.910156 317.039062 68.316406 317.546875 C 70.179688 318.210938 71.972656 319.078125 73.777344 319.890625 C 74.882812 320.382812 75.929688 321.300781 77.050781 321.386719 C 78.765625 321.511719 80.027344 322.597656 81.609375 322.976562 C 83.730469 323.484375 85.644531 324.679688 87.8125 325.128906 C 88.953125 325.363281 90.152344 325.414062 91.164062 326.101562 C 91.863281 326.578125 92.6875 326.695312 93.484375 326.921875 C 94.292969 327.152344 95.148438 327.085938 95.933594 327.457031 C 97.921875 328.414062 99.992188 329.152344 102.234375 329.265625 C 102.441406 329.273438 102.640625 329.386719 102.832031 329.472656 C 104.878906 330.394531 107.105469 330.722656 109.269531 331.160156 C 110.9375 331.496094 112.574219 332.015625 114.265625 332.273438 C 114.820312 332.359375 115.304688 332.058594 115.820312 332.289062 C 117.402344 332.980469 119.101562 333.265625 120.792969 333.589844 C 122.742188 333.960938 124.691406 334.375 126.625 334.8125 C 128.308594 335.1875 130.097656 335.355469 131.847656 335.605469 C 132.402344 335.683594 132.996094 335.3125 133.539062 335.683594 C 134.085938 336.054688 134.695312 336.082031 135.320312 336.054688 C 136.015625 336.019531 136.691406 336.140625 137.375 336.261719 C 139.1875 336.574219 140.980469 337.089844 142.851562 336.941406 C 143.25 336.910156 143.640625 336.933594 144.027344 337.089844 C 145.96875 337.875 148.066406 337.304688 150.050781 337.78125 C 151.207031 338.0625 152.390625 337.417969 153.597656 338.0625 C 154.132812 338.347656 154.964844 338.539062 155.621094 338.46875 C 156.914062 338.324219 158.148438 338.648438 159.410156 338.65625 C 161.160156 338.667969 162.914062 338.863281 164.648438 339.046875 C 165.992188 339.191406 167.289062 338.90625 168.632812 339.054688 C 169.894531 339.199219 171.265625 340.148438 172.5625 339.046875 C 172.640625 338.976562 172.960938 339.0625 173.070312 339.175781 C 173.734375 339.882812 174.632812 339.664062 175.390625 339.664062 C 178.277344 339.664062 181.160156 339.539062 184.050781 339.414062 C 186.40625 339.3125 188.738281 338.863281 191.109375 338.917969 C 192.015625 338.941406 192.914062 338.804688 193.792969 338.710938 C 195.289062 338.546875 196.808594 338.796875 198.265625 338.441406 C 200.042969 338.003906 201.875 338.074219 203.675781 337.753906 C 205.457031 337.433594 207.441406 337.820312 209.296875 337.304688 C 209.699219 337.191406 209.917969 337.726562 210.3125 337.46875 C 211.910156 336.417969 213.800781 336.96875 215.535156 336.589844 C 217.433594 336.175781 219.472656 336.324219 221.386719 335.789062 C 222.492188 335.480469 223.65625 335.867188 224.71875 335.382812 C 224.910156 335.96875 225.089844 336.554688 225.296875 337.132812 C 225.425781 337.484375 225.695312 337.710938 226.050781 337.53125 C 226.351562 337.382812 226.515625 337.074219 226.367188 336.703125 C 226.1875 336.269531 226.007812 335.832031 225.832031 335.398438 C 227.152344 334.710938 228.664062 334.683594 230.054688 334.394531 C 232.660156 333.859375 235.285156 333.375 237.875 332.789062 C 239.859375 332.34375 241.894531 331.972656 243.863281 331.617188 C 245.898438 331.246094 247.746094 330.195312 249.871094 330.222656 C 251.121094 330.238281 252.21875 329.429688 253.476562 329.207031 C 255.152344 328.910156 256.894531 328.644531 258.425781 327.886719 C 259.410156 327.402344 260.480469 327.378906 261.472656 326.972656 C 263.101562 326.300781 264.792969 325.679688 266.511719 325.359375 C 268.210938 325.035156 269.671875 324.128906 271.363281 323.800781 C 272.300781 323.613281 273.25 323.019531 274.203125 322.769531 C 275.753906 322.355469 277.136719 321.5625 278.671875 321.09375 C 281.855469 320.113281 284.84375 318.519531 287.820312 316.960938 C 289.503906 316.632812 290.460938 315.074219 292.058594 314.519531 C 293.234375 314.109375 294.234375 313.160156 295.296875 312.433594 C 297.300781 311.058594 299.570312 310.089844 301.296875 308.289062 C 302.113281 307.4375 302.902344 306.53125 303.972656 305.9375 C 305.25 305.230469 305.957031 303.84375 307.242188 303.113281 C 307.933594 302.722656 307.90625 301.835938 308.519531 301.277344 C 310.4375 299.535156 311.097656 297.15625 311.054688 294.640625 C 311.015625 292.941406 310.523438 291.269531 309.996094 289.636719 C 309.382812 287.753906 308.96875 285.757812 307.105469 284.566406 C 306.808594 284.371094 306.601562 283.929688 306.492188 283.558594 C 306.394531 283.1875 306.1875 282.957031 305.957031 282.664062 C 304.773438 281.136719 303.140625 280.164062 301.65625 279 C 300.71875 278.269531 299.886719 277.433594 298.835938 276.828125 C 297.152344 275.847656 295.476562 274.855469 293.914062 273.703125 C 291.765625 272.117188 289.445312 270.867188 287.089844 269.667969 C 285.050781 268.632812 282.917969 267.765625 280.941406 266.625 C 279.519531 265.808594 277.886719 265.667969 276.503906 264.886719 C 274.816406 263.945312 273.019531 263.300781 271.25 262.574219 C 269.300781 261.773438 267.191406 261.421875 265.304688 260.402344 C 264.640625 260.042969 263.800781 260.007812 263.050781 259.730469 C 261.574219 259.179688 260.046875 258.5625 258.5625 258.308594 C 256.644531 257.972656 254.859375 257.292969 252.996094 256.847656 C 253.238281 256.570312 253.78125 256.300781 253.523438 255.925781 C 253.226562 255.5 252.746094 255.898438 252.382812 256.078125 C 252.070312 256.234375 251.789062 256.457031 251.492188 256.648438 C 251.234375 256.277344 250.769531 256.550781 250.492188 256.335938 C 249.144531 255.320312 247.417969 255.628906 245.960938 254.976562 C 245.789062 254.898438 245.574219 254.839844 245.453125 255 C 245.039062 255.511719 244.742188 255.085938 244.339844 254.964844 C 242.90625 254.519531 241.574219 253.839844 240.082031 253.535156 C 238.425781 253.191406 236.71875 253.0625 235.101562 252.621094 C 234.214844 252.375 233.308594 252.339844 232.417969 252.097656 C 231.132812 251.753906 229.761719 251.632812 228.421875 251.449219 C 226.625 251.203125 224.855469 250.789062 223.019531 250.648438 C 222.019531 250.570312 220.984375 250.519531 219.996094 250.324219 C 218.617188 250.0625 217.210938 249.898438 215.835938 249.917969 C 214.847656 249.933594 213.757812 249.976562 212.878906 249.820312 C 211.089844 249.488281 209.332031 249.503906 207.550781 249.402344 C 206.480469 249.347656 205.375 249.453125 204.375 249.28125 C 202.71875 248.996094 201.050781 249.152344 199.421875 248.832031 C 197.660156 248.480469 195.902344 248.324219 194.113281 248.511719 C 193.414062 248.582031 192.785156 248.167969 192.042969 248.175781 C 190.515625 248.1875 188.976562 248.0625 187.460938 247.859375 C 186.507812 247.730469 185.578125 247.394531 184.609375 247.746094 C 184.265625 247.867188 183.945312 247.710938 183.59375 247.625 C 182.496094 247.367188 181.363281 247.039062 180.253906 247.652344 Z M 57.628906 259.730469 C 57.984375 259.671875 58.285156 259.800781 58.421875 259.492188 C 58.542969 259.207031 58.347656 258.992188 58.148438 258.84375 C 57.5625 258.386719 56.878906 258.136719 56.171875 257.984375 C 55.714844 257.886719 55.378906 258.183594 55.257812 258.59375 C 55.117188 259.09375 55.609375 259.058594 55.871094 259.15625 C 56.488281 259.378906 57.113281 259.558594 57.628906 259.730469 Z M 301.128906 267.308594 C 300.898438 267.09375 300.570312 266.824219 300.234375 266.980469 C 299.558594 267.289062 298.792969 267.453125 298.257812 268.023438 C 298.09375 268.203125 297.859375 268.382812 298.050781 268.675781 C 298.214844 268.917969 298.457031 268.9375 298.722656 268.847656 C 299.4375 268.601562 300.164062 268.390625 300.761719 267.910156 C 300.925781 267.773438 301.113281 267.644531 301.128906 267.308594 Z M 93.320312 340.863281 C 93.300781 340.597656 93.347656 340.363281 93.078125 340.269531 C 92.886719 340.207031 92.734375 340.296875 92.585938 340.414062 C 92.179688 340.734375 91.945312 341.183594 91.722656 341.640625 C 91.550781 342.007812 90.960938 342.414062 91.328125 342.714844 C 91.742188 343.054688 92.277344 342.542969 92.636719 342.25 C 93.050781 341.898438 93.226562 341.347656 93.320312 340.863281 Z M 319.558594 280.128906 C 319.867188 280.191406 320.328125 279.929688 320.828125 279.863281 C 321.050781 279.835938 321.265625 279.726562 321.257812 279.464844 C 321.25 279.199219 320.984375 279.128906 320.792969 279.078125 C 320.257812 278.941406 319.730469 278.964844 319.203125 279.171875 C 318.894531 279.292969 318.351562 279.171875 318.386719 279.671875 C 318.429688 280.234375 318.972656 280.0625 319.558594 280.128906 Z M 260.445312 337.683594 C 260.289062 336.96875 259.804688 336.410156 259.078125 336.074219 C 258.839844 335.96875 258.570312 336.046875 258.492188 336.382812 C 258.363281 336.925781 259.589844 338.242188 260.160156 338.167969 C 260.402344 338.132812 260.445312 337.96875 260.445312 337.683594 Z M 22.34375 311.453125 C 23.046875 311.53125 23.597656 311.375 24.105469 311.089844 C 24.3125 310.972656 24.5625 310.789062 24.441406 310.488281 C 24.324219 310.195312 24.089844 310.210938 23.804688 310.296875 C 23.328125 310.429688 22.8125 310.480469 22.34375 310.644531 C 22.042969 310.753906 21.480469 310.703125 21.535156 311.175781 C 21.605469 311.660156 22.128906 311.402344 22.34375 311.453125 Z M 125.636719 338.578125 C 126.230469 338.304688 126.28125 337.589844 126.6875 337.132812 C 126.894531 336.898438 126.886719 336.582031 126.722656 336.316406 C 126.558594 336.054688 126.296875 336.003906 126.09375 336.253906 C 125.625 336.820312 125.382812 337.488281 125.308594 338.226562 C 125.289062 338.40625 125.347656 338.589844 125.636719 338.578125 Z M 305.230469 269.347656 C 305.265625 269.011719 305.007812 268.890625 304.757812 268.9375 C 304.210938 269.046875 303.566406 269.089844 303.425781 269.804688 C 303.359375 270.117188 303.566406 270.460938 303.894531 270.367188 C 304.429688 270.210938 305.015625 270.023438 305.230469 269.347656 Z M 30.996094 290.640625 C 31.453125 290.632812 31.996094 290.597656 31.902344 290.183594 C 31.738281 289.425781 30.910156 289.78125 30.40625 289.558594 C 30.191406 289.46875 29.804688 289.539062 29.847656 289.867188 C 29.941406 290.558594 30.5625 290.546875 30.996094 290.640625 Z M 178.558594 345.75 C 178.398438 345.328125 178.820312 344.558594 178.078125 344.527344 C 177.628906 344.507812 177.65625 345.191406 177.65625 345.621094 C 177.652344 346.105469 177.707031 346.785156 178.171875 346.808594 C 178.769531 346.828125 178.414062 346.128906 178.558594 345.75 Z M 298.921875 320.242188 C 298.617188 320.285156 298.195312 320.257812 298.289062 320.648438 C 298.445312 321.304688 299.09375 321.398438 299.644531 321.535156 C 299.871094 321.59375 300.128906 321.449219 300.058594 321.183594 C 299.898438 320.621094 299.5 320.292969 298.921875 320.242188 Z M 86.5 339.90625 C 86.484375 339.621094 86.292969 339.535156 86.058594 339.570312 C 85.285156 339.683594 85.136719 340.382812 84.824219 340.917969 C 84.722656 341.089844 84.886719 341.253906 85.101562 341.277344 C 85.40625 341.3125 86.519531 340.226562 86.5 339.90625 Z M 34.160156 294.117188 C 34.050781 293.910156 34.03125 293.839844 33.988281 293.789062 C 33.792969 293.589844 32.273438 293.695312 32.140625 293.925781 C 31.925781 294.289062 32.160156 294.527344 32.46875 294.519531 C 32.925781 294.511719 33.375 294.382812 33.832031 294.28125 C 33.957031 294.253906 34.082031 294.160156 34.160156 294.117188 Z M 98.601562 256.976562 C 98.886719 257.054688 99.023438 256.914062 98.972656 256.71875 C 98.824219 256.085938 98.300781 255.804688 97.753906 255.621094 C 97.53125 255.542969 97.28125 255.742188 97.339844 255.976562 C 97.496094 256.640625 98.160156 256.707031 98.601562 256.976562 Z M 269.246094 337.976562 C 269.144531 337.324219 269.136719 336.675781 268.453125 336.503906 C 268.21875 336.445312 267.917969 336.390625 267.769531 336.660156 C 267.605469 336.976562 267.875 337.097656 268.097656 337.234375 C 268.480469 337.476562 268.859375 337.726562 269.246094 337.976562 Z M 120.042969 336.996094 C 120.03125 336.667969 119.929688 336.460938 119.652344 336.527344 C 119.167969 336.640625 118.945312 336.988281 118.953125 337.484375 C 118.960938 337.746094 119.015625 338.089844 119.351562 337.949219 C 119.75 337.769531 119.964844 337.367188 120.042969 336.996094 Z M 120.042969 336.996094 " fill-opacity="1" fill-rule="nonzero"/><path fill="#d0a488" d="M 252.996094 256.84375 C 254.859375 257.285156 256.644531 257.964844 258.5625 258.300781 C 260.054688 258.558594 261.582031 259.171875 263.050781 259.722656 C 263.792969 260 264.640625 260.027344 265.304688 260.394531 C 267.191406 261.421875 269.300781 261.765625 271.25 262.566406 C 273.019531 263.292969 274.824219 263.9375 276.5 264.878906 C 277.886719 265.660156 279.519531 265.800781 280.941406 266.617188 C 282.917969 267.761719 285.050781 268.625 287.089844 269.660156 C 289.453125 270.859375 291.773438 272.117188 293.914062 273.699219 C 295.476562 274.847656 297.160156 275.847656 298.835938 276.820312 C 299.886719 277.425781 300.71875 278.261719 301.65625 278.992188 C 303.140625 280.15625 304.773438 281.128906 305.957031 282.65625 C 306.179688 282.949219 306.386719 283.179688 306.492188 283.550781 C 306.59375 283.921875 306.808594 284.367188 307.105469 284.558594 C 308.96875 285.75 309.390625 287.753906 309.996094 289.632812 C 310.523438 291.261719 311.015625 292.933594 311.054688 294.632812 C 311.101562 297.140625 310.4375 299.519531 308.519531 301.269531 C 307.90625 301.828125 307.933594 302.714844 307.242188 303.105469 C 305.964844 303.835938 305.25 305.222656 303.972656 305.929688 C 302.902344 306.523438 302.121094 307.429688 301.296875 308.28125 C 299.570312 310.082031 297.300781 311.054688 295.296875 312.425781 C 294.234375 313.152344 293.234375 314.105469 292.058594 314.511719 C 290.453125 315.070312 289.503906 316.625 287.820312 316.953125 C 288.246094 315.71875 287.242188 315.433594 286.5 314.976562 C 286.25 314.820312 285.949219 314.683594 285.742188 315.027344 C 285.5625 315.332031 285.5625 315.660156 285.855469 315.910156 C 286.425781 316.410156 286.984375 316.949219 287.828125 316.949219 C 284.851562 318.5 281.859375 320.097656 278.679688 321.078125 C 277.144531 321.550781 275.761719 322.347656 274.210938 322.757812 C 273.253906 323.015625 272.304688 323.601562 271.371094 323.785156 C 269.679688 324.113281 268.21875 325.023438 266.519531 325.34375 C 264.800781 325.664062 263.109375 326.285156 261.480469 326.957031 C 260.488281 327.367188 259.425781 327.386719 258.433594 327.871094 C 256.898438 328.628906 255.160156 328.894531 253.480469 329.195312 C 252.226562 329.421875 251.128906 330.230469 249.878906 330.210938 C 247.753906 330.179688 245.902344 331.230469 243.871094 331.601562 C 241.902344 331.960938 239.867188 332.332031 237.882812 332.773438 C 235.292969 333.351562 232.667969 333.847656 230.0625 334.382812 C 228.671875 334.667969 227.160156 334.695312 225.839844 335.382812 C 225.472656 334.894531 225.101562 334.28125 224.71875 335.367188 C 223.65625 335.855469 222.492188 335.460938 221.386719 335.773438 C 219.480469 336.3125 217.433594 336.160156 215.535156 336.574219 C 213.792969 336.953125 211.910156 336.402344 210.3125 337.453125 C 209.917969 337.710938 209.699219 337.175781 209.296875 337.289062 C 207.441406 337.8125 205.457031 337.417969 203.675781 337.742188 C 201.875 338.0625 200.042969 337.992188 198.265625 338.425781 C 196.808594 338.785156 195.28125 338.535156 193.792969 338.699219 C 192.914062 338.789062 192.015625 338.933594 191.109375 338.90625 C 188.746094 338.847656 186.40625 339.296875 184.050781 339.398438 C 181.167969 339.527344 178.277344 339.640625 175.390625 339.648438 C 174.632812 339.648438 173.734375 339.871094 173.070312 339.164062 C 172.960938 339.046875 172.640625 338.960938 172.5625 339.035156 C 171.265625 340.132812 169.894531 339.183594 168.632812 339.039062 C 167.289062 338.890625 165.992188 339.175781 164.648438 339.035156 C 162.921875 338.847656 161.167969 338.65625 159.410156 338.640625 C 158.148438 338.632812 156.914062 338.3125 155.621094 338.453125 C 154.972656 338.527344 154.132812 338.332031 153.597656 338.046875 C 152.390625 337.40625 151.199219 338.046875 150.050781 337.769531 C 148.066406 337.289062 145.96875 337.867188 144.027344 337.074219 C 143.636719 336.917969 143.242188 336.898438 142.851562 336.925781 C 140.980469 337.074219 139.1875 336.5625 137.375 336.246094 C 136.691406 336.125 136.019531 336.003906 135.320312 336.039062 C 134.695312 336.074219 134.085938 336.039062 133.539062 335.667969 C 132.996094 335.296875 132.402344 335.667969 131.847656 335.589844 C 130.097656 335.339844 128.300781 335.175781 126.625 334.796875 C 124.691406 334.359375 122.742188 333.945312 120.792969 333.574219 C 119.101562 333.253906 117.410156 332.96875 115.820312 332.273438 C 115.304688 332.046875 114.820312 332.34375 114.265625 332.261719 C 112.566406 332.003906 110.9375 331.488281 109.269531 331.144531 C 107.105469 330.710938 104.878906 330.378906 102.832031 329.457031 C 102.640625 329.375 102.433594 329.257812 102.234375 329.25 C 99.992188 329.136719 97.921875 328.394531 95.933594 327.445312 C 95.148438 327.074219 94.296875 327.128906 93.484375 326.90625 C 92.6875 326.6875 91.863281 326.566406 91.164062 326.085938 C 90.152344 325.394531 88.953125 325.351562 87.8125 325.113281 C 85.644531 324.664062 83.730469 323.472656 81.609375 322.964844 C 80.035156 322.585938 78.769531 321.507812 77.050781 321.371094 C 75.929688 321.285156 74.875 320.371094 73.777344 319.878906 C 71.972656 319.070312 70.179688 318.207031 68.316406 317.535156 C 66.910156 317.027344 65.855469 316.046875 64.691406 315.21875 C 64.15625 314.839844 63.351562 315.011719 63.042969 314.296875 C 63.378906 312.847656 62.429688 313.382812 61.773438 313.46875 C 59.277344 312.253906 57.113281 310.523438 54.800781 309.023438 C 53.78125 308.359375 52.996094 307.289062 52.046875 306.535156 C 49.949219 304.863281 48.03125 303.035156 46.453125 300.890625 C 45.40625 299.46875 44.710938 297.890625 44.347656 296.046875 C 43.871094 293.605469 44.890625 291.589844 45.375 289.386719 C 45.953125 286.753906 47.660156 284.816406 49.171875 282.765625 C 50.136719 281.449219 51.589844 280.605469 52.839844 279.578125 C 54.144531 278.5 55.539062 277.535156 56.90625 276.542969 C 57.519531 276.097656 58.121094 275.589844 58.804688 275.3125 C 60.640625 274.570312 62.222656 273.3125 63.742188 272.203125 C 65.535156 270.898438 67.71875 270.453125 69.378906 268.996094 C 70.117188 268.351562 71.234375 268.179688 72.15625 267.753906 C 73.210938 267.265625 74.105469 266.503906 75.21875 266.109375 C 76.039062 265.816406 76.789062 265.34375 77.707031 265.402344 C 77.957031 265.417969 78.207031 265.417969 78.398438 265.179688 C 79.320312 264.039062 80.796875 263.730469 82.011719 263.34375 C 83.835938 262.757812 85.523438 261.800781 87.382812 261.363281 C 89.347656 260.914062 91.207031 260.136719 93.058594 259.429688 C 94.992188 258.691406 97.003906 258.378906 98.9375 257.734375 C 99.765625 257.457031 100.585938 257.214844 101.484375 257.265625 C 102.246094 257.304688 102.625 256.492188 103.417969 256.363281 C 105.359375 256.054688 107.3125 255.675781 109.175781 255.070312 C 111.074219 254.449219 113.078125 254.414062 114.957031 253.578125 C 116.425781 252.925781 118.195312 252.847656 119.84375 252.710938 C 121.265625 252.589844 122.597656 252.125 123.96875 251.855469 C 124.996094 251.648438 126.003906 251.367188 127.03125 251.574219 C 127.679688 251.703125 127.902344 251.097656 128.335938 251.027344 C 129.042969 250.910156 129.792969 250.734375 130.46875 250.777344 C 131.425781 250.839844 132.269531 250.433594 133.195312 250.398438 C 133.867188 250.375 134.574219 250.226562 135.25 250.289062 C 136.484375 250.417969 137.625 250.074219 138.78125 249.753906 C 139.144531 249.652344 139.488281 249.527344 139.808594 249.796875 C 140.03125 249.984375 140.238281 249.953125 140.507812 249.917969 C 142.285156 249.710938 144.085938 249.609375 145.847656 249.339844 C 147.074219 249.152344 148.257812 249.445312 149.484375 249.324219 C 152.847656 248.996094 156.207031 248.546875 159.5625 248.425781 C 161.773438 248.347656 163.984375 247.695312 166.242188 248.210938 C 166.78125 248.332031 167.445312 248.039062 168.023438 247.839844 C 169.59375 247.304688 171.230469 247.726562 172.8125 247.433594 C 173.046875 247.875 173.277344 247.859375 173.511719 247.433594 C 173.933594 247.160156 174.417969 247.101562 174.867188 247.261719 C 175.367188 247.4375 175.882812 247.488281 176.359375 247.394531 C 177.457031 247.1875 178.535156 247.460938 179.628906 247.417969 C 179.554688 247.652344 179.441406 247.890625 179.421875 248.132812 C 179.371094 248.648438 179.433594 249.390625 179.914062 249.410156 C 180.570312 249.441406 180.199219 248.695312 180.285156 248.296875 C 180.328125 248.089844 180.277344 247.867188 180.269531 247.652344 C 181.367188 247.039062 182.511719 247.367188 183.601562 247.625 C 183.953125 247.710938 184.273438 247.867188 184.617188 247.746094 C 185.59375 247.394531 186.511719 247.738281 187.46875 247.859375 C 188.988281 248.0625 190.523438 248.1875 192.050781 248.175781 C 192.792969 248.167969 193.421875 248.582031 194.121094 248.511719 C 195.910156 248.324219 197.667969 248.480469 199.429688 248.832031 C 201.054688 249.152344 202.726562 248.996094 204.382812 249.28125 C 205.378906 249.453125 206.484375 249.347656 207.554688 249.402344 C 209.339844 249.503906 211.101562 249.488281 212.886719 249.820312 C 213.765625 249.976562 214.847656 249.933594 215.839844 249.917969 C 217.21875 249.898438 218.625 250.0625 220 250.324219 C 220.992188 250.519531 222.027344 250.570312 223.027344 250.648438 C 224.855469 250.789062 226.625 251.199219 228.429688 251.449219 C 229.769531 251.632812 231.132812 251.746094 232.425781 252.097656 C 233.308594 252.332031 234.214844 252.375 235.109375 252.621094 C 236.726562 253.0625 238.433594 253.191406 240.089844 253.535156 C 241.574219 253.839844 242.914062 254.527344 244.347656 254.964844 C 244.746094 255.085938 245.054688 255.511719 245.460938 255 C 245.582031 254.839844 245.796875 254.898438 245.96875 254.976562 C 247.417969 255.628906 249.152344 255.3125 250.5 256.335938 C 250.785156 256.550781 251.25 256.277344 251.5 256.648438 C 251.382812 257.3125 251.726562 257.421875 252.246094 257.214844 C 252.503906 257.113281 252.683594 256.835938 252.996094 256.84375 Z M 246.660156 272.433594 C 246.367188 272.3125 246.152344 271.925781 245.761719 272.191406 C 243.941406 271.46875 242.121094 270.746094 240.300781 270.019531 C 239.972656 268.601562 239.273438 269.910156 238.761719 269.804688 C 236.796875 269.1875 234.757812 268.851562 232.765625 268.351562 C 229.921875 267.636719 227 267.195312 224.097656 266.753906 C 220.292969 266.171875 216.460938 265.773438 212.664062 265.171875 C 210.097656 264.765625 207.527344 264.835938 204.953125 264.886719 C 203.703125 264.917969 202.398438 265.210938 201.21875 264.714844 C 200.0625 264.238281 198.902344 264.832031 197.703125 264.359375 C 196.503906 263.886719 195.117188 263.707031 193.757812 264.066406 C 192.65625 264.359375 191.53125 263.78125 190.429688 263.972656 C 189.132812 264.195312 187.796875 264.207031 186.550781 264.015625 C 184.4375 263.6875 182.324219 263.832031 180.21875 263.707031 C 179.511719 263.664062 178.800781 263.902344 178.179688 263.324219 C 177.972656 263.121094 177.613281 263.144531 177.351562 263.300781 C 175.972656 264.136719 174.402344 263.832031 172.976562 263.800781 C 171.964844 263.78125 170.886719 264.109375 169.867188 263.679688 C 169.703125 263.609375 169.445312 263.746094 169.246094 263.816406 C 167.894531 264.246094 166.496094 264.265625 165.128906 264.066406 C 164.171875 263.921875 163.265625 263.835938 162.324219 264.085938 C 162.058594 264.160156 161.78125 264.375 161.488281 264.203125 C 160.226562 263.464844 159.125 264.257812 158.019531 264.636719 C 157.777344 264.722656 157.59375 264.832031 157.386719 264.703125 C 156.515625 264.171875 155.628906 264.585938 154.753906 264.660156 C 153.816406 264.738281 152.917969 265.09375 151.96875 265.023438 C 150.628906 264.921875 149.277344 264.496094 147.945312 265.066406 C 147.722656 265.160156 147.53125 265.101562 147.316406 265.015625 C 146.175781 264.558594 144.96875 264.703125 143.84375 264.917969 C 140.84375 265.488281 137.804688 265.800781 134.800781 266.296875 C 132.589844 266.660156 130.347656 266.796875 128.144531 267.304688 C 126.75 267.625 125.339844 267.847656 123.941406 268.210938 C 121.929688 268.726562 119.859375 269.011719 117.824219 269.519531 C 113.90625 270.488281 110.105469 271.746094 106.414062 273.367188 C 102.5625 275.0625 98.414062 276.097656 95.117188 278.992188 C 93.585938 280.34375 92.023438 281.609375 90.558594 283.078125 C 88.078125 285.585938 87.527344 288.625 87.519531 291.753906 C 87.511719 294.640625 87.667969 297.664062 89.152344 300.292969 C 89.9375 301.679688 90.773438 303.148438 92.179688 304.027344 C 93.828125 305.066406 95.574219 305.953125 97.28125 306.902344 C 97.125 307.164062 96.953125 307.445312 97.453125 307.515625 C 97.851562 307.582031 98.238281 307.5 98.609375 307.332031 C 99.1875 307.824219 99.855469 308.082031 100.578125 308.324219 C 102.5625 308.980469 104.566406 309.59375 106.550781 310.257812 C 108.390625 310.882812 110.390625 311.003906 112.203125 311.789062 C 112.5 311.917969 112.835938 312.132812 113.121094 312.089844 C 114.59375 311.875 115.933594 312.460938 117.3125 312.761719 C 118.753906 313.074219 120.164062 313.566406 121.613281 313.859375 C 123.484375 314.238281 125.347656 314.652344 127.207031 315.0625 C 128.328125 315.304688 129.425781 315.710938 130.554688 315.832031 C 133.03125 316.113281 135.285156 317.113281 137.664062 317.734375 C 139.539062 318.21875 141.265625 319.304688 143.300781 319.183594 C 142.921875 319.503906 142.542969 319.828125 142.179688 320.164062 C 142 320.320312 141.949219 320.527344 142.136719 320.726562 C 142.300781 320.90625 142.566406 320.992188 142.714844 320.84375 C 143.269531 320.285156 144.15625 319.964844 144.140625 318.96875 C 144.933594 319.164062 145.769531 319.261719 146.519531 319.570312 C 148.628906 320.449219 150.898438 320.632812 153.097656 321.0625 C 156.335938 321.699219 159.660156 321.691406 162.964844 321.535156 C 163.042969 321.863281 162.921875 322.15625 162.835938 322.472656 C 162.765625 322.726562 162.644531 323.113281 162.972656 323.222656 C 163.285156 323.328125 163.578125 323.078125 163.707031 322.757812 C 163.863281 322.363281 163.984375 321.964844 164.121094 321.5625 C 166.832031 321.648438 169.542969 321.714844 172.25 321.820312 C 174.640625 321.921875 177.039062 322.269531 179.40625 322.140625 C 181.996094 321.992188 184.601562 322.054688 187.167969 321.714844 C 187.890625 321.621094 188.570312 321.785156 189.296875 321.683594 C 190.832031 321.46875 192.414062 321.441406 194 321.542969 C 195.539062 321.640625 197.125 321.742188 198.644531 321.507812 C 200.191406 321.261719 201.761719 321.191406 203.316406 320.800781 C 204.867188 320.414062 206.484375 320.214844 208.070312 319.878906 C 208.640625 319.753906 208.984375 319.277344 209.683594 319.292969 C 210.503906 319.304688 211.382812 319.261719 212.230469 319.21875 C 215.0625 319.0625 217.617188 317.820312 220.257812 317.019531 C 222.589844 316.320312 224.953125 315.832031 227.292969 315.246094 C 229.5625 314.675781 231.917969 314.402344 234.160156 313.746094 C 235.929688 313.230469 237.71875 312.726562 239.511719 312.4375 C 242.480469 311.96875 245.382812 311.246094 248.257812 310.445312 C 250.242188 309.894531 252.199219 309.109375 254.167969 308.515625 C 256.394531 307.84375 258.335938 306.75 260.261719 305.558594 L 260.253906 305.566406 C 264.75 304.164062 266.953125 299.835938 267.476562 295.996094 C 267.738281 294.0625 267.890625 292.109375 267.710938 290.152344 C 267.617188 289.144531 267.617188 288.101562 267.316406 287.152344 C 266.683594 285.152344 265.328125 283.464844 263.898438 282.066406 C 261.152344 279.371094 258.214844 276.90625 254.417969 275.554688 C 251.789062 274.621094 249.179688 273.617188 246.660156 272.433594 Z M 270.292969 293.484375 C 270.542969 293.460938 270.90625 293.546875 271.25 293.339844 C 271.4375 293.226562 271.726562 293.175781 271.707031 292.941406 C 271.679688 292.625 271.371094 292.632812 271.113281 292.605469 C 270.652344 292.554688 270.1875 292.433594 269.722656 292.441406 C 269.410156 292.441406 269.03125 292.5625 269.03125 292.984375 C 269.03125 293.332031 269.316406 293.453125 269.636719 293.484375 C 269.824219 293.488281 270.007812 293.484375 270.292969 293.484375 Z M 122.871094 254.328125 C 122.726562 253.492188 122.078125 253.371094 121.484375 253.21875 C 121.058594 253.113281 121.121094 253.5 121.144531 253.71875 C 121.207031 254.519531 121.886719 254.640625 122.464844 254.792969 C 122.734375 254.855469 122.882812 254.554688 122.871094 254.328125 Z M 98.335938 321.800781 C 99.273438 321.46875 99.90625 321.09375 100.390625 320.5 C 100.535156 320.320312 100.605469 320.105469 100.429688 319.921875 C 100.277344 319.761719 100.09375 319.847656 99.9375 319.925781 C 99.199219 320.269531 98.628906 320.769531 98.335938 321.800781 Z M 295.089844 304.886719 C 294.796875 304.972656 294.207031 304.679688 294.261719 305.222656 C 294.320312 305.773438 294.953125 305.945312 295.433594 305.929688 C 295.777344 305.914062 296.476562 305.84375 296.417969 305.488281 C 296.324219 304.863281 295.640625 304.90625 295.089844 304.886719 Z M 144.71875 324.351562 C 145.632812 324.558594 145.78125 323.8125 146.152344 323.378906 C 146.375 323.121094 146.804688 322.820312 146.324219 322.515625 C 145.925781 322.257812 145.546875 322.558594 145.347656 322.929688 C 145.113281 323.371094 144.941406 323.84375 144.71875 324.351562 Z M 78.5 268.488281 C 78.792969 268.417969 79.371094 268.582031 79.222656 268.101562 C 79 267.410156 78.1875 267.609375 77.636719 267.402344 C 77.386719 267.308594 77.050781 267.46875 77.164062 267.796875 C 77.371094 268.4375 77.964844 268.445312 78.5 268.488281 Z M 247.382812 263.886719 C 246.996094 264.125 246.261719 263.964844 246.230469 264.757812 C 246.21875 265.171875 246.539062 265.230469 246.839844 265.203125 C 247.402344 265.144531 247.757812 264.757812 247.917969 264.265625 C 248.039062 263.910156 247.703125 263.886719 247.382812 263.886719 Z M 258.019531 307.757812 C 257.742188 307.765625 257.414062 307.878906 257.464844 308.136719 C 257.605469 308.835938 258.378906 308.84375 258.847656 309.195312 C 259.035156 309.339844 259.363281 309.074219 259.296875 308.773438 C 259.164062 308.101562 258.527344 307.996094 258.019531 307.757812 Z M 306.050781 299.433594 C 305.578125 299.382812 305.324219 299.507812 305.378906 299.886719 C 305.464844 300.449219 305.964844 300.449219 306.386719 300.484375 C 306.742188 300.519531 307.128906 300.371094 307.0625 299.984375 C 306.964844 299.378906 306.320312 299.585938 306.050781 299.433594 Z M 238.78125 262.28125 C 238.738281 262.164062 238.753906 262.015625 238.53125 262.042969 C 237.953125 262.121094 237.398438 262.257812 236.949219 262.636719 C 236.714844 262.835938 236.777344 263.164062 237.019531 263.28125 C 237.589844 263.550781 237.847656 262.84375 238.339844 262.785156 C 238.617188 262.765625 238.78125 262.59375 238.78125 262.28125 Z M 302.941406 296.339844 C 303.210938 296.289062 303.726562 296.441406 303.660156 295.992188 C 303.601562 295.554688 303.011719 295.625 302.65625 295.511719 C 302.410156 295.425781 302.121094 295.621094 302.15625 295.917969 C 302.203125 296.347656 302.582031 296.328125 302.941406 296.339844 Z M 302.941406 296.339844 " fill-opacity="1" fill-rule="nonzero"/><path fill="#faf2e3" d="M 143.269531 319.183594 C 141.238281 319.296875 139.511719 318.21875 137.632812 317.734375 C 135.265625 317.121094 133.003906 316.113281 130.527344 315.832031 C 129.398438 315.703125 128.300781 315.304688 127.179688 315.0625 C 125.316406 314.652344 123.453125 314.238281 121.585938 313.859375 C 120.136719 313.566406 118.730469 313.074219 117.28125 312.761719 C 115.90625 312.460938 114.570312 311.882812 113.09375 312.089844 C 112.808594 312.132812 112.472656 311.917969 112.171875 311.789062 C 110.359375 311.003906 108.363281 310.875 106.523438 310.257812 C 104.539062 309.59375 102.539062 308.972656 100.550781 308.324219 C 99.820312 308.082031 99.152344 307.832031 98.578125 307.332031 C 98.664062 307.265625 98.742188 307.195312 98.835938 307.136719 C 99.15625 306.9375 99.636719 306.835938 99.277344 306.28125 C 98.949219 305.765625 98.574219 305.9375 98.203125 306.203125 C 97.878906 306.429688 97.574219 306.664062 97.261719 306.894531 C 95.554688 305.945312 93.8125 305.058594 92.15625 304.023438 C 90.753906 303.144531 89.917969 301.671875 89.132812 300.285156 C 87.648438 297.65625 87.492188 294.640625 87.5 291.746094 C 87.503906 288.617188 88.054688 285.582031 90.539062 283.070312 C 91.992188 281.601562 93.554688 280.335938 95.097656 278.984375 C 98.394531 276.089844 102.539062 275.054688 106.394531 273.363281 C 110.082031 271.738281 113.886719 270.480469 117.804688 269.511719 C 119.835938 269.003906 121.90625 268.726562 123.917969 268.203125 C 125.316406 267.847656 126.730469 267.617188 128.121094 267.296875 C 130.328125 266.789062 132.566406 266.652344 134.78125 266.289062 C 137.789062 265.796875 140.824219 265.488281 143.820312 264.910156 C 144.949219 264.695312 146.152344 264.542969 147.296875 265.007812 C 147.507812 265.09375 147.703125 265.160156 147.921875 265.058594 C 149.257812 264.488281 150.605469 264.917969 151.949219 265.015625 C 152.902344 265.085938 153.796875 264.730469 154.730469 264.652344 C 155.609375 264.582031 156.484375 264.164062 157.363281 264.695312 C 157.570312 264.824219 157.757812 264.714844 158 264.628906 C 159.113281 264.246094 160.203125 263.457031 161.46875 264.195312 C 161.757812 264.367188 162.039062 264.152344 162.300781 264.082031 C 163.242188 263.832031 164.15625 263.921875 165.105469 264.058594 C 166.476562 264.257812 167.867188 264.238281 169.222656 263.808594 C 169.429688 263.746094 169.6875 263.609375 169.84375 263.671875 C 170.863281 264.109375 171.941406 263.773438 172.957031 263.792969 C 174.390625 263.832031 175.953125 264.128906 177.328125 263.292969 C 177.601562 263.128906 177.949219 263.117188 178.15625 263.316406 C 178.769531 263.894531 179.492188 263.660156 180.199219 263.703125 C 182.304688 263.824219 184.414062 263.679688 186.527344 264.007812 C 187.777344 264.203125 189.109375 264.195312 190.410156 263.964844 C 191.507812 263.773438 192.636719 264.351562 193.734375 264.058594 C 195.097656 263.695312 196.480469 263.878906 197.679688 264.351562 C 198.878906 264.824219 200.042969 264.230469 201.199219 264.710938 C 202.382812 265.203125 203.683594 264.902344 204.929688 264.878906 C 207.507812 264.832031 210.070312 264.757812 212.644531 265.167969 C 216.441406 265.765625 220.273438 266.167969 224.074219 266.746094 C 226.980469 267.1875 229.898438 267.632812 232.746094 268.347656 C 234.738281 268.847656 236.769531 269.183594 238.738281 269.796875 C 238.40625 270.332031 238.070312 270.859375 237.640625 271.539062 C 238.902344 271.425781 239.601562 270.746094 240.273438 270.011719 C 242.09375 270.734375 243.914062 271.453125 245.734375 272.183594 C 245.148438 272.53125 244.613281 272.925781 244.441406 273.753906 C 245.519531 273.796875 246.304688 273.503906 246.632812 272.433594 C 249.152344 273.617188 251.761719 274.621094 254.359375 275.542969 C 258.148438 276.882812 261.089844 279.355469 263.84375 282.050781 C 265.269531 283.449219 266.617188 285.128906 267.261719 287.136719 C 267.5625 288.082031 267.5625 289.132812 267.652344 290.140625 C 267.832031 292.097656 267.6875 294.046875 267.417969 295.984375 C 266.890625 299.820312 264.691406 304.152344 260.195312 305.550781 C 260.339844 304.714844 259.613281 304.585938 259.140625 304.242188 C 258.820312 304.007812 258.511719 304.015625 258.3125 304.359375 C 258.097656 304.730469 258.347656 304.992188 258.65625 305.152344 C 259.132812 305.402344 259.648438 305.578125 260.203125 305.542969 C 258.277344 306.746094 256.335938 307.832031 254.109375 308.503906 C 252.132812 309.101562 250.183594 309.882812 248.203125 310.429688 C 245.324219 311.230469 242.421875 311.953125 239.453125 312.425781 C 237.664062 312.710938 235.871094 313.210938 234.101562 313.730469 C 231.855469 314.382812 229.507812 314.660156 227.238281 315.234375 C 224.890625 315.820312 222.527344 316.304688 220.199219 317.003906 C 217.5625 317.796875 215.007812 319.046875 212.171875 319.207031 C 211.324219 319.253906 210.445312 319.292969 209.625 319.277344 C 208.917969 319.261719 208.578125 319.742188 208.011719 319.863281 C 206.429688 320.199219 204.816406 320.398438 203.261719 320.785156 C 201.707031 321.175781 200.136719 321.25 198.585938 321.492188 C 197.074219 321.726562 195.488281 321.628906 193.941406 321.527344 C 192.363281 321.425781 190.78125 321.457031 189.238281 321.671875 C 188.511719 321.769531 187.832031 321.605469 187.113281 321.699219 C 184.542969 322.042969 181.9375 321.984375 179.347656 322.128906 C 176.980469 322.265625 174.574219 321.90625 172.191406 321.804688 C 169.480469 321.699219 166.777344 321.636719 164.0625 321.550781 C 164.058594 321.21875 164.078125 320.8125 163.679688 320.75 C 163.152344 320.664062 163.171875 321.269531 162.910156 321.519531 C 159.605469 321.683594 156.28125 321.683594 153.039062 321.050781 C 150.84375 320.621094 148.574219 320.433594 146.460938 319.554688 C 145.71875 319.25 144.882812 319.148438 144.085938 318.957031 C 143.785156 318.847656 143.542969 319.070312 143.269531 319.183594 Z M 149.609375 299.835938 C 149.707031 299.785156 149.835938 299.675781 149.894531 299.707031 C 151.296875 300.390625 152.898438 300.449219 154.316406 300.347656 C 156.042969 300.226562 157.585938 300.757812 159.210938 300.941406 C 159.703125 301 160.21875 301.164062 160.6875 301.078125 C 162.394531 300.765625 164.0625 301.234375 165.753906 301.292969 C 166.285156 301.3125 166.820312 301.121094 167.3125 301.269531 C 169.417969 301.898438 171.601562 301.972656 173.746094 302 C 176.914062 302.042969 180.089844 301.976562 183.257812 301.914062 C 185.957031 301.863281 188.527344 300.890625 191.230469 301.105469 C 191.742188 301.148438 192.273438 300.515625 192.871094 300.792969 C 194.175781 301.414062 195.449219 301.113281 196.703125 300.707031 C 197.859375 300.335938 199.066406 300.507812 200.265625 300.113281 C 201.417969 299.734375 202.777344 300.621094 204.179688 299.929688 C 205.125 299.464844 206.394531 299.597656 207.519531 299.492188 C 208.90625 299.355469 210.554688 299.707031 211.601562 299.050781 C 212.816406 298.292969 214.144531 298.441406 215.320312 297.804688 C 216.976562 296.914062 218.921875 296.441406 220.117188 294.882812 C 221.101562 293.605469 222.191406 292.289062 221.914062 290.417969 C 221.613281 288.402344 220.316406 286.972656 219.089844 285.582031 C 218.058594 284.414062 216.769531 283.34375 215.257812 282.871094 C 213.628906 282.363281 212.152344 281.535156 210.382812 281.285156 C 208.3125 280.992188 206.230469 280.605469 204.167969 280.171875 C 202.777344 279.878906 201.3125 279.699219 199.871094 279.558594 C 198.558594 279.429688 197.253906 279.097656 195.917969 278.941406 C 193.699219 278.671875 191.515625 278.257812 189.269531 278.5625 C 189.433594 278.21875 189.703125 277.792969 189.296875 277.535156 C 188.867188 277.261719 188.511719 277.621094 188.242188 277.964844 C 188.132812 278.097656 188.039062 278.242188 187.941406 278.386719 C 187.207031 278.277344 186.464844 278.183594 185.726562 278.050781 C 183.945312 277.71875 182.132812 278.070312 180.332031 277.742188 C 179.371094 277.570312 178.394531 277.25 177.371094 277.390625 C 175.175781 277.691406 172.960938 277.84375 170.757812 278 C 170.109375 278.050781 169.480469 277.804688 168.800781 278.042969 C 167.933594 278.34375 167.003906 278.570312 166.054688 278.578125 C 164.878906 278.59375 163.714844 278.414062 162.523438 278.507812 C 161.667969 278.578125 160.882812 279.042969 160.074219 278.957031 C 158.675781 278.804688 157.371094 279.308594 156 279.355469 C 154.738281 279.398438 153.488281 279.726562 152.234375 279.929688 C 151.882812 279.800781 151.8125 279.449219 151.65625 279.179688 C 151.5 278.898438 151.382812 278.484375 150.984375 278.664062 C 150.570312 278.847656 150.640625 279.257812 150.828125 279.605469 C 150.925781 279.800781 151.054688 279.972656 151.171875 280.15625 C 149.042969 280.519531 146.910156 280.878906 144.785156 281.242188 C 144.542969 281.027344 144.320312 280.785156 144.0625 280.601562 C 143.835938 280.429688 143.683594 279.933594 143.304688 280.234375 C 143.042969 280.441406 143.265625 280.765625 143.386719 281.023438 C 143.441406 281.148438 143.484375 281.285156 143.535156 281.421875 C 143.214844 281.964844 142.621094 281.914062 142.121094 282.085938 C 140.9375 282.492188 139.746094 282.835938 138.71875 283.636719 C 137.3125 284.722656 135.792969 285.652344 134.992188 287.359375 C 134.78125 287.824219 134.109375 287.929688 133.902344 288.503906 C 133.023438 290.910156 133.652344 293.855469 135.671875 295.476562 C 136.171875 295.875 136.5625 296.476562 137.304688 296.710938 C 138.917969 297.21875 140.515625 297.804688 142.121094 298.347656 C 144.253906 299.070312 146.367188 299.648438 148.628906 299.636719 C 148.964844 299.636719 149.363281 299.457031 149.628906 299.847656 C 148.742188 299.777344 147.972656 300 147.496094 300.8125 C 147.375 301.019531 147.59375 301.140625 147.789062 301.140625 C 148.714844 301.164062 149.371094 300.792969 149.609375 299.835938 Z M 115.390625 282.300781 C 115.648438 282.214844 115.960938 282.449219 116.078125 282.085938 C 116.167969 281.792969 115.960938 281.621094 115.792969 281.4375 C 115.371094 280.992188 114.734375 281.023438 114.25 280.730469 C 114.007812 280.578125 113.757812 280.308594 113.527344 280.6875 C 113.351562 280.984375 113.40625 281.335938 113.6875 281.570312 C 114.171875 282 114.769531 282.222656 115.390625 282.300781 Z M 152.296875 269.351562 C 151.828125 269.382812 151.519531 269.5625 151.621094 269.953125 C 151.8125 270.734375 152.695312 270.53125 153.183594 270.945312 C 153.273438 271.03125 153.554688 270.625 153.503906 270.511719 C 153.253906 269.933594 152.917969 269.425781 152.296875 269.351562 Z M 109.527344 282.757812 C 109.820312 282.613281 110.402344 283 110.359375 282.394531 C 110.324219 281.785156 109.726562 281.6875 109.226562 281.648438 C 108.914062 281.628906 108.390625 281.464844 108.40625 282.035156 C 108.425781 282.757812 109.070312 282.644531 109.527344 282.757812 Z M 240.136719 309.082031 C 239.839844 309.066406 239.609375 309.171875 239.675781 309.4375 C 239.789062 309.917969 240.152344 310.230469 240.617188 310.386719 C 240.875 310.472656 241.1875 310.4375 241.152344 310.074219 C 241.085938 309.464844 240.460938 309.394531 240.136719 309.082031 Z M 218.9375 314.210938 C 218.757812 314.316406 218.574219 314.410156 218.675781 314.632812 C 218.886719 315.113281 219.203125 315.503906 219.746094 315.597656 C 219.914062 315.625 219.957031 315.40625 219.914062 315.277344 C 219.757812 314.761719 219.367188 314.460938 218.9375 314.210938 Z M 218.9375 314.210938 " fill-opacity="1" fill-rule="nonzero"/><path fill="#ce9c80" d="M 189.273438 278.554688 C 191.515625 278.242188 193.707031 278.664062 195.925781 278.933594 C 197.261719 279.097656 198.566406 279.421875 199.878906 279.550781 C 201.320312 279.691406 202.78125 279.871094 204.175781 280.164062 C 206.238281 280.601562 208.320312 280.984375 210.390625 281.277344 C 212.152344 281.527344 213.636719 282.359375 215.261719 282.863281 C 216.777344 283.335938 218.074219 284.410156 219.09375 285.574219 C 220.324219 286.964844 221.621094 288.394531 221.921875 290.410156 C 222.199219 292.289062 221.105469 293.597656 220.121094 294.875 C 218.929688 296.425781 216.984375 296.898438 215.328125 297.796875 C 214.148438 298.433594 212.824219 298.285156 211.609375 299.042969 C 210.554688 299.699219 208.914062 299.347656 207.527344 299.484375 C 206.402344 299.59375 205.128906 299.464844 204.1875 299.921875 C 202.78125 300.613281 201.417969 299.726562 200.269531 300.105469 C 199.074219 300.5 197.867188 300.328125 196.710938 300.699219 C 195.453125 301.105469 194.183594 301.40625 192.878906 300.785156 C 192.285156 300.5 191.75 301.140625 191.238281 301.097656 C 188.53125 300.886719 185.964844 301.855469 183.265625 301.90625 C 180.097656 301.972656 176.921875 302.035156 173.753906 301.992188 C 171.605469 301.964844 169.421875 301.898438 167.316406 301.265625 C 166.824219 301.113281 166.289062 301.308594 165.761719 301.285156 C 164.078125 301.226562 162.410156 300.757812 160.695312 301.070312 C 160.226562 301.15625 159.710938 300.992188 159.21875 300.933594 C 157.59375 300.75 156.050781 300.222656 154.324219 300.34375 C 152.902344 300.441406 151.304688 300.386719 149.898438 299.699219 C 149.84375 299.671875 149.714844 299.785156 149.613281 299.828125 L 149.628906 299.84375 C 149.363281 299.449219 148.964844 299.628906 148.628906 299.628906 C 146.367188 299.640625 144.253906 299.0625 142.121094 298.339844 C 140.515625 297.796875 138.925781 297.210938 137.304688 296.707031 C 136.5625 296.476562 136.171875 295.875 135.671875 295.46875 C 133.652344 293.847656 133.023438 290.902344 133.902344 288.496094 C 134.109375 287.921875 134.78125 287.816406 134.992188 287.351562 C 135.792969 285.644531 137.304688 284.714844 138.71875 283.628906 C 139.753906 282.835938 140.945312 282.484375 142.121094 282.078125 C 142.621094 281.90625 143.214844 281.957031 143.535156 281.414062 C 143.734375 281.566406 143.914062 281.765625 144.132812 281.84375 C 144.40625 281.9375 144.597656 282.449219 144.917969 282.113281 C 145.167969 281.859375 144.941406 281.515625 144.789062 281.234375 C 146.917969 280.871094 149.050781 280.515625 151.175781 280.148438 C 151.503906 280.472656 151.691406 281.164062 152.296875 280.863281 C 152.660156 280.6875 152.410156 280.234375 152.234375 279.921875 C 153.488281 279.722656 154.738281 279.398438 156 279.347656 C 157.371094 279.300781 158.675781 278.804688 160.074219 278.949219 C 160.890625 279.035156 161.667969 278.570312 162.523438 278.5 C 163.722656 278.398438 164.886719 278.578125 166.054688 278.570312 C 167.003906 278.5625 167.933594 278.328125 168.800781 278.035156 C 169.488281 277.800781 170.109375 278.042969 170.757812 277.992188 C 172.96875 277.835938 175.183594 277.683594 177.371094 277.382812 C 178.398438 277.242188 179.371094 277.554688 180.332031 277.734375 C 182.132812 278.0625 183.945312 277.714844 185.726562 278.042969 C 186.464844 278.179688 187.207031 278.261719 187.941406 278.378906 C 187.742188 278.898438 187.535156 279.429688 187.304688 280.007812 C 188.417969 280.007812 188.632812 279 189.273438 278.554688 Z M 205.949219 290.445312 C 206.550781 290.308594 207.472656 290.683594 207.535156 289.894531 C 207.59375 289.1875 206.714844 289.082031 206.109375 289.117188 C 205.539062 289.152344 204.679688 289.101562 204.660156 289.890625 C 204.632812 290.882812 205.558594 290.183594 205.949219 290.445312 Z M 197.753906 296.570312 C 197.996094 296.519531 198.289062 296.640625 198.335938 296.355469 C 198.367188 296.21875 198.230469 296.035156 198.125 295.898438 C 197.59375 295.242188 196.808594 295.039062 196.054688 294.820312 C 195.859375 294.761719 195.605469 294.761719 195.476562 294.996094 C 195.375 295.183594 195.441406 295.375 195.589844 295.484375 C 196.261719 295.960938 196.910156 296.503906 197.753906 296.570312 Z M 191.007812 298.054688 C 191.03125 297.457031 189.859375 296.320312 189.261719 296.332031 C 188.941406 296.347656 188.824219 296.554688 188.71875 296.792969 C 188.597656 297.035156 188.710938 297.210938 188.910156 297.347656 C 189.425781 297.683594 189.9375 298.019531 190.460938 298.339844 C 190.773438 298.546875 191 298.507812 191.007812 298.054688 Z M 171.949219 295.914062 C 171.949219 295.589844 171.785156 295.453125 171.472656 295.460938 C 171.042969 295.46875 169.84375 296.699219 169.835938 297.113281 C 169.832031 297.371094 169.996094 297.398438 170.179688 297.425781 C 170.742188 297.542969 171.972656 296.492188 171.949219 295.914062 Z M 171.949219 295.914062 " fill-opacity="1" fill-rule="nonzero"/><path fill="#999492" d="M 283.917969 261.914062 L 221.695312 266.644531 L 230.347656 138.066406 L 219.179688 139.175781 L 213.804688 267.246094 L 157.777344 271.503906 L 156.683594 143.644531 L 144.402344 142.523438 L 149.851562 272.105469 L 93.0625 276.417969 L 88.59375 287.585938 L 290.617188 271.960938 L 283.917969 261.914062 " fill-opacity="1" fill-rule="nonzero"/><g clip-path="url(#ded83d4529)"><path fill="#858b8c" d="M 333.027344 314.355469 L 270.804688 319.085938 L 279.457031 190.507812 L 268.296875 191.625 L 262.914062 319.691406 L 206.886719 323.945312 L 205.789062 196.085938 L 193.511719 194.96875 L 198.960938 324.550781 L 142.171875 328.863281 L 137.703125 340.027344 L 339.726562 324.402344 L 333.027344 314.355469 " fill-opacity="1" fill-rule="nonzero"/></g><path fill="#dbcfbf" d="M 101.550781 136.945312 C 98.203125 135.835938 75.875 129.136719 75.875 129.136719 L 79.222656 146.992188 L 156.242188 202.78125 L 373.882812 188.277344 L 375.003906 174.882812 L 101.550781 136.945312 " fill-opacity="1" fill-rule="nonzero"/><path fill="#d8c9ba" d="M 73.234375 128.609375 L 288.648438 129.726562 L 372.363281 174.359375 L 154.714844 186.628906 L 73.234375 128.609375 " fill-opacity="1" fill-rule="nonzero"/><path fill="#545e66" d="M 127.441406 138.652344 L 175.429688 168.78125 L 222.308594 165.433594 L 237.9375 102.945312 L 165.390625 79.515625 L 158.691406 134.1875 L 122.972656 134.1875 L 127.441406 138.652344 " fill-opacity="1" fill-rule="nonzero"/><path fill="#b9e0da" d="M 168.742188 85.09375 L 163.160156 135.304688 L 217.847656 158.738281 L 230.128906 107.414062 L 168.742188 85.09375 " fill-opacity="1" fill-rule="nonzero"/><path fill="#d5efea" d="M 188.714844 105.960938 C 184.539062 107.21875 180.292969 109.429688 177.351562 112.707031 C 177.113281 112.976562 177.5 113.425781 177.785156 113.1875 C 179.449219 111.832031 181.125 110.492188 182.980469 109.390625 C 184.867188 108.261719 186.886719 107.390625 188.976562 106.742188 C 189.492188 106.589844 189.222656 105.804688 188.714844 105.960938 " fill-opacity="1" fill-rule="nonzero"/><path fill="#d5efea" d="M 208.871094 108.34375 C 200.503906 111.9375 192.570312 116.535156 185.359375 122.089844 C 183.347656 123.632812 181.183594 125.210938 179.539062 127.144531 C 179.351562 127.367188 179.640625 127.675781 179.875 127.523438 C 181.753906 126.289062 183.421875 124.726562 185.1875 123.347656 C 186.933594 121.984375 188.722656 120.675781 190.546875 119.410156 C 194.253906 116.839844 198.117188 114.488281 202.113281 112.386719 C 204.402344 111.1875 206.738281 110.066406 209.109375 109.03125 C 209.53125 108.84375 209.304688 108.164062 208.871094 108.34375 " fill-opacity="1" fill-rule="nonzero"/><path fill="#d5efea" d="M 217.496094 115.589844 C 209.351562 119.625 201.492188 124.246094 194.042969 129.449219 C 191.886719 130.953125 189.746094 132.480469 187.726562 134.167969 C 187.335938 134.503906 187.75 135.15625 188.191406 134.847656 C 191.933594 132.210938 195.5625 129.425781 199.351562 126.867188 C 203.109375 124.328125 206.96875 121.941406 210.886719 119.671875 C 213.117188 118.375 215.382812 117.132812 217.667969 115.925781 C 217.855469 115.824219 217.6875 115.5 217.496094 115.589844 " fill-opacity="1" fill-rule="nonzero"/><path fill="#d5efea" d="M 215.464844 128.175781 C 212.472656 129.496094 209.613281 131.089844 206.925781 132.960938 C 205.601562 133.882812 204.328125 134.863281 203.101562 135.910156 C 201.851562 136.972656 200.519531 138.066406 199.589844 139.421875 C 199.386719 139.722656 199.710938 140.1875 200.0625 139.9375 C 201.3125 139.003906 202.382812 137.828125 203.558594 136.800781 C 204.777344 135.746094 206.042969 134.742188 207.359375 133.800781 C 209.988281 131.933594 212.800781 130.316406 215.742188 128.984375 C 216.230469 128.753906 215.96875 127.953125 215.464844 128.175781 " fill-opacity="1" fill-rule="nonzero"/><path fill="#d5efea" d="M 217.457031 134.699219 C 213.46875 137.101562 209.449219 139.460938 205.554688 142.003906 C 205.136719 142.273438 205.5625 142.882812 205.988281 142.640625 C 209.980469 140.253906 213.863281 137.691406 217.777344 135.167969 C 218.085938 134.96875 217.765625 134.511719 217.457031 134.699219 " fill-opacity="1" fill-rule="nonzero"/><path fill="#3c4449" d="M 177.734375 165.753906 C 167.140625 158.972656 156.601562 152.089844 145.980469 145.34375 C 142.980469 143.441406 139.957031 141.578125 136.953125 139.683594 C 136.765625 139.566406 136.550781 139.886719 136.738281 140.007812 C 147.1875 147.015625 157.6875 153.933594 168.210938 160.835938 C 171.183594 162.78125 174.15625 164.730469 177.132812 166.691406 C 177.800781 167.132812 178.429688 166.195312 177.734375 165.753906 " fill-opacity="1" fill-rule="nonzero"/><path fill="#3c4449" d="M 174.859375 150.726562 C 170.082031 149.269531 165.585938 146.878906 161.722656 143.71875 C 159.933594 142.253906 158.183594 140.582031 155.808594 140.195312 C 153.707031 139.871094 151.558594 140.433594 149.574219 141.195312 C 149.777344 140.851562 149.515625 140.320312 149.066406 140.507812 C 148.398438 140.785156 147.988281 141.40625 148.121094 142.140625 C 148.144531 142.289062 148.226562 142.425781 148.332031 142.507812 C 148.210938 142.632812 148.167969 142.851562 148.332031 142.964844 C 152.671875 145.90625 157 148.871094 161.273438 151.902344 C 162.367188 152.675781 163.453125 153.445312 164.53125 154.230469 C 164.890625 154.488281 165.390625 155.046875 165.832031 155.128906 C 166.25 155.199219 166.953125 154.800781 167.34375 154.644531 C 169.875 153.679688 172.402344 152.703125 174.925781 151.722656 C 175.441406 151.523438 175.339844 150.871094 174.859375 150.726562 " fill-opacity="1" fill-rule="nonzero"/><path fill="#d96a49" d="M 251.328125 169.058594 L 253.566406 168.78125 C 253.566406 168.78125 303.230469 167.109375 304.074219 165.710938 C 304.90625 164.316406 304.628906 159.015625 303.507812 157.617188 C 302.398438 156.230469 268.078125 136.980469 268.078125 136.980469 L 232.359375 136.425781 L 232.082031 143.398438 L 251.328125 169.058594 " fill-opacity="1" fill-rule="nonzero"/><path fill="#e1f4f0" d="M 232.359375 138.097656 L 253.003906 158.738281 C 253.003906 158.738281 297.929688 158.460938 300.722656 158.460938 C 303.507812 158.460938 301.277344 164.871094 301.277344 164.871094 L 252.171875 167.664062 L 232.359375 142.558594 L 232.359375 138.097656 " fill-opacity="1" fill-rule="nonzero"/><path fill="#ffffff" d="M 298.746094 159.527344 C 295.828125 159.457031 292.898438 159.585938 289.980469 159.636719 C 287.105469 159.683594 284.230469 159.726562 281.351562 159.773438 C 275.550781 159.863281 269.75 159.945312 263.953125 160.027344 C 260.667969 160.066406 257.382812 160.125 254.089844 160.175781 C 253.550781 160.183594 253.609375 161.023438 254.148438 161.015625 C 265.742188 160.804688 277.332031 160.566406 288.933594 160.363281 C 292.210938 160.304688 295.511719 160.347656 298.789062 160.148438 C 299.195312 160.125 299.136719 159.539062 298.746094 159.527344 " fill-opacity="1" fill-rule="nonzero"/><path fill="#ffffff" d="M 299.859375 160.886719 C 293.828125 160.992188 287.800781 161.21875 281.769531 161.382812 C 275.742188 161.554688 269.710938 161.667969 263.671875 161.839844 C 260.300781 161.9375 256.917969 162.035156 253.542969 162.175781 C 253.144531 162.191406 253.191406 162.789062 253.582031 162.789062 C 265.640625 162.648438 277.710938 162.167969 289.769531 161.855469 C 293.140625 161.765625 296.53125 161.710938 299.90625 161.585938 C 300.363281 161.570312 300.316406 160.875 299.859375 160.886719 " fill-opacity="1" fill-rule="nonzero"/><path fill="#ffffff" d="M 298.746094 162.664062 C 292.953125 162.941406 287.160156 163.3125 281.359375 163.515625 C 275.558594 163.726562 269.761719 163.882812 263.960938 164.019531 C 260.675781 164.101562 257.382812 164.160156 254.097656 164.242188 C 253.699219 164.257812 253.746094 164.863281 254.140625 164.863281 C 265.75 164.878906 277.351562 164.390625 288.941406 163.851562 C 292.226562 163.695312 295.511719 163.546875 298.796875 163.328125 C 299.21875 163.300781 299.171875 162.648438 298.746094 162.664062 " fill-opacity="1" fill-rule="nonzero"/><path fill="#ffffff" d="M 252.21875 159.734375 C 251.453125 158.132812 250.003906 156.921875 248.773438 155.683594 C 247.253906 154.171875 245.742188 152.660156 244.230469 151.140625 C 241.230469 148.152344 238.25 145.15625 235.25 142.15625 C 235.0625 141.96875 234.800781 142.28125 234.980469 142.46875 C 237.863281 145.390625 240.742188 148.308594 243.617188 151.230469 L 247.832031 155.519531 C 249.203125 156.914062 250.789062 158.246094 251.804688 159.945312 C 251.941406 160.167969 252.332031 159.96875 252.21875 159.734375 " fill-opacity="1" fill-rule="nonzero"/><path fill="#ffffff" d="M 251.15625 160.679688 C 248.730469 157.722656 246.019531 154.964844 243.445312 152.128906 C 240.832031 149.253906 238.160156 146.414062 235.511719 143.5625 C 235.375 143.40625 235.085938 143.652344 235.234375 143.816406 C 237.757812 146.691406 240.273438 149.582031 242.839844 152.433594 C 245.4375 155.324219 247.945312 158.34375 250.691406 161.097656 C 250.9375 161.351562 251.378906 160.957031 251.15625 160.679688 " fill-opacity="1" fill-rule="nonzero"/><path fill="#ffffff" d="M 250.292969 162.386719 C 245.644531 156.972656 240.839844 151.679688 236.335938 146.144531 C 236.222656 145.996094 235.984375 146.160156 236.101562 146.296875 C 240.5625 151.894531 244.988281 157.519531 249.816406 162.8125 C 250.054688 163.074219 250.527344 162.65625 250.292969 162.386719 " fill-opacity="1" fill-rule="nonzero"/><path fill="#e1f4f0" d="M 265.773438 128.332031 C 268.050781 122.140625 247.554688 96.648438 256.679688 80.363281 C 265.796875 64.078125 264.824219 66.039062 263.519531 54.308594 C 262.21875 42.582031 272.316406 35.09375 277.53125 38.996094 C 282.742188 42.910156 290.886719 51.703125 282.097656 68.316406 C 273.296875 84.929688 268.085938 83.296875 271.664062 96.648438 C 275.25 110.011719 266.605469 128.332031 266.605469 128.332031 L 265.773438 128.332031 " fill-opacity="1" fill-rule="nonzero"/><path fill="#479696" d="M 254.402344 124.148438 C 254.402344 124.148438 255.953125 147.441406 265.667969 149.769531 C 275.371094 152.105469 278.871094 124.148438 278.871094 124.148438 L 254.402344 124.148438 " fill-opacity="1" fill-rule="nonzero"/><path fill="#479696" d="M 274.988281 131.140625 C 274.988281 131.140625 283.140625 124.925781 284.695312 129.578125 C 286.246094 134.242188 281.199219 140.066406 276.925781 141.617188 C 272.652344 143.171875 271.101562 143.171875 271.101562 143.171875 L 272.652344 140.449219 C 272.652344 140.449219 277.316406 140.449219 280.421875 135.402344 C 283.527344 130.355469 281.972656 129.195312 278.476562 131.523438 C 274.988281 133.851562 273.429688 136.179688 273.429688 136.179688 L 274.988281 131.140625 " fill-opacity="1" fill-rule="nonzero"/><path fill="#88b5ac" d="M 262.113281 129.578125 C 261.453125 129.128906 260.757812 128.738281 260.0625 128.332031 C 259.433594 127.960938 258.941406 128.992188 259.570312 129.359375 C 260.226562 129.734375 260.871094 130.125 261.550781 130.460938 C 262.0625 130.714844 262.621094 129.929688 262.113281 129.578125 " fill-opacity="1" fill-rule="nonzero"/><path fill="#88b5ac" d="M 265.984375 128.027344 C 265.570312 128.601562 265.210938 129.15625 264.914062 129.792969 C 264.769531 130.101562 265.175781 130.527344 265.460938 130.265625 C 265.984375 129.800781 266.425781 129.316406 266.851562 128.769531 C 267.292969 128.183594 266.417969 127.441406 265.984375 128.027344 " fill-opacity="1" fill-rule="nonzero"/><path fill="#88b5ac" d="M 265.25 136.164062 C 265.023438 136.179688 264.867188 136.382812 264.867188 136.59375 C 264.875 136.855469 264.882812 137.109375 264.914062 137.371094 C 264.933594 137.550781 265.070312 137.699219 265.257812 137.707031 C 265.421875 137.714844 265.617188 137.601562 265.632812 137.421875 C 265.667969 137.125 265.675781 136.832031 265.683594 136.546875 C 265.691406 136.324219 265.453125 136.15625 265.25 136.164062 " fill-opacity="1" fill-rule="nonzero"/><path fill="#88b5ac" d="M 263.992188 141.839844 L 263.976562 141.601562 C 263.960938 141.480469 263.863281 141.382812 263.738281 141.375 C 263.625 141.363281 263.484375 141.445312 263.476562 141.570312 C 263.46875 141.652344 263.460938 141.734375 263.453125 141.804688 C 263.445312 141.929688 263.429688 142.042969 263.5 142.15625 C 263.59375 142.28125 263.828125 142.320312 263.925781 142.171875 C 263.976562 142.109375 264 142.050781 264 141.960938 C 264 141.921875 263.992188 141.878906 263.992188 141.839844 " fill-opacity="1" fill-rule="nonzero"/><path fill="#88b5ac" d="M 262.070312 134.824219 C 261.910156 134.617188 261.753906 134.449219 261.53125 134.300781 C 261.335938 134.160156 261.132812 134.015625 260.929688 133.875 C 260.691406 133.710938 260.382812 133.730469 260.21875 133.980469 C 260.046875 134.242188 260.167969 134.519531 260.40625 134.675781 C 260.617188 134.808594 260.820312 134.945312 261.035156 135.078125 C 261.253906 135.214844 261.46875 135.289062 261.710938 135.363281 C 262 135.453125 262.261719 135.050781 262.070312 134.824219 " fill-opacity="1" fill-rule="nonzero"/><path fill="#88b5ac" d="M 271.179688 133.433594 C 271.050781 133.425781 270.929688 133.417969 270.796875 133.410156 C 270.675781 133.394531 270.570312 133.410156 270.453125 133.476562 C 270.339844 133.550781 270.273438 133.6875 270.265625 133.828125 C 270.25 134.097656 270.472656 134.324219 270.75 134.308594 C 270.871094 134.300781 271 134.285156 271.132812 134.277344 C 271.34375 134.257812 271.507812 134.089844 271.523438 133.875 C 271.53125 133.6875 271.394531 133.449219 271.179688 133.433594 " fill-opacity="1" fill-rule="nonzero"/><path fill="#88b5ac" d="M 271.164062 128.871094 C 270.75 128.828125 270.332031 128.828125 269.914062 128.828125 C 269.441406 128.828125 269.492188 129.554688 269.964844 129.554688 C 270.347656 129.554688 270.730469 129.5625 271.125 129.523438 C 271.476562 129.480469 271.550781 128.910156 271.164062 128.871094 " fill-opacity="1" fill-rule="nonzero"/><path fill="#88b5ac" d="M 275.652344 127.300781 C 275.390625 127.421875 275.128906 127.546875 274.867188 127.660156 C 274.628906 127.773438 274.5 128.011719 274.621094 128.265625 C 274.742188 128.511719 275.019531 128.558594 275.25 128.429688 C 275.503906 128.289062 275.75 128.152344 276 128.003906 C 276.386719 127.792969 276.058594 127.121094 275.652344 127.300781 " fill-opacity="1" fill-rule="nonzero"/><path fill="#88b5ac" d="M 274.472656 135.484375 C 274.402344 135.417969 274.277344 135.378906 274.179688 135.386719 C 273.949219 135.410156 273.796875 135.597656 273.804688 135.820312 C 273.804688 135.949219 273.8125 136.082031 273.8125 136.210938 C 273.820312 136.414062 274.023438 136.605469 274.238281 136.578125 C 274.464844 136.554688 274.597656 136.375 274.605469 136.15625 C 274.605469 136.023438 274.613281 135.902344 274.613281 135.769531 C 274.621094 135.664062 274.546875 135.550781 274.472656 135.484375 " fill-opacity="1" fill-rule="nonzero"/><path fill="#88b5ac" d="M 270.960938 142.777344 C 270.78125 142.632812 270.445312 142.621094 270.308594 142.835938 C 270.019531 143.234375 269.6875 143.652344 269.5 144.109375 C 269.320312 144.558594 269.839844 144.859375 270.175781 144.550781 C 270.511719 144.238281 270.757812 143.816406 271.019531 143.441406 C 271.15625 143.226562 271.164062 142.957031 270.960938 142.777344 " fill-opacity="1" fill-rule="nonzero"/><path fill="#88b5ac" d="M 269 139.550781 C 268.804688 139.796875 268.601562 140.027344 268.46875 140.3125 C 268.3125 140.65625 268.820312 140.890625 269 140.566406 C 269.148438 140.285156 269.203125 139.984375 269.277344 139.691406 C 269.328125 139.535156 269.097656 139.429688 269 139.550781 " fill-opacity="1" fill-rule="nonzero"/><path fill="#88b5ac" d="M 267.324219 144.714844 C 267.316406 144.574219 267.113281 144.597656 267.113281 144.730469 C 267.105469 144.859375 267.097656 144.992188 267.089844 145.121094 C 267.089844 145.277344 267.351562 145.269531 267.339844 145.105469 C 267.332031 144.976562 267.332031 144.84375 267.324219 144.714844 " fill-opacity="1" fill-rule="nonzero"/><path fill="#88b5ac" d="M 265.902344 147.660156 C 265.789062 147.53125 265.675781 147.390625 265.5625 147.253906 C 265.429688 147.097656 265.21875 147.042969 265.046875 147.1875 C 264.898438 147.328125 264.898438 147.570312 265.054688 147.703125 L 265.472656 148.054688 C 265.585938 148.152344 265.75 148.144531 265.855469 148.046875 C 265.960938 147.957031 266 147.777344 265.902344 147.660156 " fill-opacity="1" fill-rule="nonzero"/><path fill="#858b8c" d="M 58.367188 216.136719 C 41.496094 221.683594 23.695312 318.097656 23.695312 318.097656 L 33.066406 316.996094 C 33.066406 316.996094 46.183594 238.300781 63.046875 225.007812 C 79.917969 211.703125 58.367188 216.136719 58.367188 216.136719 " fill-opacity="1" fill-rule="nonzero"/><path fill="#858b8c" d="M 129.027344 218.441406 C 145.890625 223.976562 163.699219 320.398438 163.699219 320.398438 L 154.328125 319.289062 C 154.328125 319.289062 141.207031 240.605469 124.335938 227.308594 C 107.476562 214.003906 129.027344 218.441406 129.027344 218.441406 " fill-opacity="1" fill-rule="nonzero"/><path fill="#aeb4b5" d="M 72.492188 221.601562 C 55.621094 227.136719 37.820312 323.5625 37.820312 323.5625 L 47.191406 322.449219 C 47.191406 322.449219 60.3125 243.765625 77.171875 230.460938 C 94.042969 217.164062 72.492188 221.601562 72.492188 221.601562 " fill-opacity="1" fill-rule="nonzero"/><path fill="#aeb4b5" d="M 142.140625 225.089844 C 159.011719 230.632812 176.8125 327.046875 176.8125 327.046875 L 167.441406 325.9375 C 167.441406 325.9375 154.328125 247.253906 137.457031 233.957031 C 120.585938 220.652344 142.140625 225.089844 142.140625 225.089844 " fill-opacity="1" fill-rule="nonzero"/><path fill="#88b5ac" d="M 1.53125 100.105469 C 0.0898438 107.570312 22.679688 205.691406 30.746094 211.964844 C 38.800781 218.234375 84.132812 229.734375 94.207031 225.554688 C 104.28125 221.371094 82.125 123.101562 78.089844 112.648438 C 74.0625 102.195312 2.535156 94.875 1.53125 100.105469 " fill-opacity="1" fill-rule="nonzero"/><path fill="#88b5ac" d="M 44.84375 206.734375 C 49.886719 202.554688 132.492188 204.644531 139.542969 206.734375 C 146.59375 208.828125 162.710938 220.328125 158.683594 225.554688 C 154.648438 230.78125 88.160156 236.007812 83.128906 234.960938 C 78.089844 233.917969 41.824219 226.597656 38.800781 222.417969 C 35.777344 218.234375 44.84375 206.734375 44.84375 206.734375 " fill-opacity="1" fill-rule="nonzero"/><path fill="#b9e0da" d="M 66.542969 112.207031 C 65.980469 109.570312 63.464844 108.386719 61.136719 107.847656 C 59.707031 107.511719 58.234375 107.40625 56.773438 107.265625 C 54.855469 107.085938 52.933594 106.898438 51.015625 106.71875 C 43.269531 105.992188 35.523438 105.289062 27.777344 104.628906 C 23.375 104.261719 18.980469 103.902344 14.578125 103.550781 C 14.21875 103.527344 14.101562 104.089844 14.46875 104.128906 C 21.855469 104.988281 29.234375 105.835938 36.625 106.628906 C 43.9375 107.414062 51.273438 108.035156 58.585938 108.890625 C 61.101562 109.195312 64.386719 109.839844 65.425781 112.609375 C 65.703125 113.351562 66.699219 112.96875 66.542969 112.207031 " fill-opacity="1" fill-rule="nonzero"/><path fill="#b9e0da" d="M 96.25 204.644531 C 96.121094 204.203125 95.53125 204.375 95.53125 204.792969 C 95.515625 206.605469 95.824219 208.410156 95.859375 210.222656 C 95.882812 211.972656 95.769531 213.734375 95.375 215.441406 C 94.992188 217.085938 94.355469 218.683594 93.25 219.949219 C 91.9375 221.445312 90.097656 222.203125 88.195312 222.464844 C 85.808594 222.792969 83.316406 222.671875 80.921875 222.546875 C 79.152344 222.457031 77.378906 222.285156 75.613281 222.050781 C 74.492188 221.828125 73.367188 221.601562 72.246094 221.371094 C 72.109375 221.347656 72.011719 221.394531 71.945312 221.484375 C 68.765625 220.921875 65.613281 220.195312 62.5 219.339844 C 63.285156 219.460938 64.078125 219.566406 64.871094 219.671875 C 68.21875 220.113281 71.585938 220.417969 74.960938 220.585938 C 76.675781 220.675781 78.390625 220.734375 80.105469 220.742188 C 81.503906 220.75 82.964844 220.6875 84.273438 220.121094 C 86.429688 219.191406 88.203125 216.242188 86.660156 214.039062 C 85.628906 201.066406 84.085938 188.121094 82.148438 175.265625 C 80.171875 162.191406 77.769531 149.199219 74.933594 136.300781 C 74.175781 132.847656 73.441406 129.382812 72.476562 125.984375 C 71.609375 122.964844 70.433594 119.992188 68.53125 117.5 C 68.195312 117.058594 67.492188 117.542969 67.828125 117.992188 C 69.527344 120.261719 70.507812 122.921875 71.242188 125.667969 C 72.019531 128.617188 72.597656 131.628906 73.242188 134.609375 C 74.640625 141.085938 75.941406 147.582031 77.125 154.097656 C 79.476562 166.984375 81.503906 179.929688 83.105469 192.941406 C 84.011719 200.300781 84.746094 207.683594 85.433594 215.074219 C 85.464844 215.476562 85.769531 215.671875 86.078125 215.679688 C 86.121094 216.324219 85.90625 216.996094 85.539062 217.566406 C 84.804688 218.699219 83.539062 219.191406 82.28125 219.386719 C 80.882812 219.597656 79.453125 219.535156 78.046875 219.507812 C 76.511719 219.484375 74.984375 219.429688 73.457031 219.355469 C 67.222656 219.019531 61.003906 218.210938 54.878906 216.976562 C 54.730469 216.953125 54.585938 216.921875 54.4375 216.886719 C 50.679688 215.679688 46.9375 214.390625 43.203125 213.082031 C 42.707031 212.902344 42.34375 213.679688 42.851562 213.859375 C 43.441406 214.0625 44.027344 214.273438 44.625 214.480469 C 44.25 214.445312 44.167969 215.074219 44.566406 215.199219 C 47.902344 216.226562 51.273438 217.117188 54.675781 217.875 C 60.6875 219.777344 66.773438 221.429688 73 222.417969 C 73.855469 222.554688 74.730469 222.6875 75.605469 222.808594 C 81.078125 224 86.5625 225.1875 92.066406 226.222656 C 92.476562 226.304688 92.589844 225.667969 92.191406 225.570312 C 88.953125 224.828125 85.71875 224.132812 82.476562 223.453125 C 84.410156 223.527344 86.347656 223.496094 88.242188 223.300781 C 91.96875 222.914062 94.753906 220.660156 95.980469 216.984375 C 96.625 215.050781 96.839844 212.992188 96.863281 210.957031 C 96.886719 208.882812 96.847656 206.636719 96.25 204.644531 " fill-opacity="1" fill-rule="nonzero"/><path fill="#b9e0da" d="M 149.625 222.492188 C 143.488281 222.890625 137.351562 223.4375 131.207031 223.8125 C 125.074219 224.199219 118.929688 224.5 112.777344 224.746094 C 109.265625 224.882812 105.75 225.007812 102.238281 225.097656 C 101.707031 225.113281 101.765625 225.960938 102.296875 225.953125 C 114.597656 225.742188 126.902344 225.242188 139.183594 224.460938 C 142.695312 224.238281 146.207031 224.027344 149.703125 223.691406 C 150.449219 223.617188 150.375 222.441406 149.625 222.492188 " fill-opacity="1" fill-rule="nonzero"/><path fill="#b9e0da" d="M 45.464844 126.941406 C 43.015625 129.488281 40.734375 132.210938 38.652344 135.085938 C 37.625 136.503906 36.652344 137.960938 35.71875 139.445312 C 34.871094 140.808594 33.757812 142.34375 33.328125 143.914062 C 33.203125 144.347656 33.792969 144.566406 34.046875 144.273438 C 34.566406 143.683594 34.910156 142.933594 35.3125 142.253906 C 35.746094 141.519531 36.195312 140.792969 36.644531 140.066406 C 37.589844 138.53125 38.597656 137.027344 39.648438 135.566406 C 41.667969 132.765625 43.875 130.109375 46.234375 127.621094 C 46.691406 127.136719 45.925781 126.460938 45.464844 126.941406 " fill-opacity="1" fill-rule="nonzero"/><path fill="#b9e0da" d="M 57.875 127.21875 C 49.324219 137.65625 41.914062 149.109375 35.933594 161.324219 C 35.105469 163.007812 34.324219 164.707031 33.554688 166.414062 C 32.777344 168.152344 31.945312 169.917969 31.398438 171.753906 C 31.234375 172.3125 32.050781 172.523438 32.296875 172.058594 C 33.105469 170.546875 33.726562 168.921875 34.421875 167.351562 C 35.082031 165.867188 35.761719 164.398438 36.457031 162.941406 C 37.894531 159.929688 39.394531 156.941406 40.980469 154.007812 C 44.214844 148.054688 47.746094 142.273438 51.601562 136.726562 C 53.757812 133.621094 56.015625 130.601562 58.359375 127.652344 C 58.613281 127.324219 58.136719 126.902344 57.875 127.21875 " fill-opacity="1" fill-rule="nonzero"/><path fill="#b9e0da" d="M 63.628906 138.464844 C 54.339844 149.882812 46.863281 162.871094 41.585938 176.777344 C 40.105469 180.683594 38.800781 184.652344 37.796875 188.71875 C 37.625 189.429688 38.644531 189.59375 38.855469 188.921875 C 41.046875 181.882812 43.449219 174.941406 46.503906 168.242188 C 49.558594 161.5625 53.121094 155.136719 57.183594 149.058594 C 59.445312 145.652344 61.871094 142.351562 64.429688 139.175781 C 64.871094 138.636719 64.070312 137.925781 63.628906 138.464844 " fill-opacity="1" fill-rule="nonzero"/><path fill="#b9e0da" d="M 66.644531 158.320312 C 59.894531 167.679688 54.476562 178.070312 50.753906 189.109375 C 50.253906 190.589844 49.78125 192.074219 49.339844 193.578125 C 48.890625 195.105469 48.269531 196.789062 48.195312 198.390625 C 48.164062 199.050781 49.09375 199.132812 49.339844 198.617188 C 49.902344 197.425781 50.125 195.996094 50.492188 194.714844 C 50.90625 193.285156 51.324219 191.855469 51.78125 190.441406 C 52.65625 187.730469 53.628906 185.050781 54.699219 182.421875 C 56.824219 177.203125 59.28125 172.113281 62.132812 167.289062 C 63.792969 164.460938 65.589844 161.71875 67.484375 159.0625 C 67.910156 158.46875 67.066406 157.722656 66.644531 158.320312 " fill-opacity="1" fill-rule="nonzero"/><path fill="#b9e0da" d="M 67.515625 177.210938 C 63.742188 185.386719 60.449219 193.789062 57.664062 202.375 C 57.402344 203.175781 58.5625 203.753906 58.824219 202.945312 C 61.5625 194.339844 64.789062 185.910156 68.503906 177.710938 C 68.808594 177.039062 67.820312 176.550781 67.515625 177.210938 " fill-opacity="1" fill-rule="nonzero"/></svg>